<svg xmlns="http://www.w3.org/2000/svg" width="32" height="32" viewBox="0 0 32 32">
    <g data-name="사각형 87" style="fill:#e4f2fe;stroke:#0065bd">
        <rect width="32" height="32" rx="5" style="stroke:none"/>
        <rect x=".5" y=".5" width="31" height="31" rx="4.5" style="fill:none"/>
    </g>
    <path d="M18637.4 10874.8a.969.969 0 0 1-.4-.679.937.937 0 0 1 .232-.734l3.393-3.883-3.393-3.884a.954.954 0 0 1-.232-.739.969.969 0 0 1 .4-.679 1.061 1.061 0 0 1 1.414.154l3.943 4.516a.954.954 0 0 1 0 1.263l-3.943 4.516a1.037 1.037 0 0 1-.791.351 1.054 1.054 0 0 1-.623-.202zm-5 0a.99.99 0 0 1-.4-.679.953.953 0 0 1 .234-.734l3.391-3.883-3.391-3.884a.97.97 0 0 1-.234-.739.99.99 0 0 1 .4-.679 1.071 1.071 0 0 1 .627-.2 1.036 1.036 0 0 1 .787.355l3.943 4.516a.954.954 0 0 1 0 1.263l-3.943 4.516a1.032 1.032 0 0 1-.787.351 1.071 1.071 0 0 1-.627-.203z" transform="translate(-18621.5 -10853.5)" style="fill:#0065bd"/>
</svg>
