<svg xmlns="http://www.w3.org/2000/svg" width="34" height="34" viewBox="0 0 34 34">
    <path style="fill:none" d="M0 0h34v34H0z"/>
    <path data-name="Boundary" style="fill:none" d="M0 0h20v20H0z" transform="translate(7 7)"/>
    <path d="M10.255 5.764h-.718v-2.02A3.9 3.9 0 0 0 5.5 0a3.9 3.9 0 0 0-4.041 3.744v2.02H.745A.718.718 0 0 0 0 6.455v6.854A.718.718 0 0 0 .745 14h9.509a.72.72 0 0 0 .746-.691V6.455a.72.72 0 0 0-.745-.691m-7.3-2.02A2.463 2.463 0 0 1 5.5 1.382a2.463 2.463 0 0 1 2.55 2.362v2.02h-5.1z" transform="translate(11 10)" style="fill:#858585;isolation:isolate"/>
</svg>
