<svg xmlns="http://www.w3.org/2000/svg" width="34" height="34" viewBox="0 0 34 34">
    <path style="fill:none" d="M0 0h34v34H0z"/>
    <path d="M6.537 11.515a5.007 5.007 0 0 0 3.024-1l.533-.4.412-.523A5.01 5.01 0 0 0 6.537 1.5a5.018 5.018 0 0 0-3.564 1.469 4.987 4.987 0 0 0 0 7.077 5.019 5.019 0 0 0 3.564 1.469M15.141 16a.86.86 0 0 1-.607-.249l-4.074-4.037a6.561 6.561 0 0 1-8.545-.6 6.487 6.487 0 0 1 0-9.2 6.557 6.557 0 0 1 9.244 0 6.487 6.487 0 0 1 .525 8.614l4.064 4.028a.846.846 0 0 1 0 1.2.86.86 0 0 1-.607.244z" transform="translate(9.5 9)" style="fill:#1976e5"/>
    <path data-name="Boundary" style="fill:none" d="M0 0h20v20H0z" transform="translate(7 7)"/>
</svg>
