<svg xmlns="http://www.w3.org/2000/svg" width="18" height="18" viewBox="0 0 18 18">
    <g data-name="패스 462126" style="fill:#fff">
        <path d="M16 17.5H2c-.827 0-1.5-.673-1.5-1.5V2C.5 1.173 1.173.5 2 .5h14c.827 0 1.5.673 1.5 1.5v14c0 .827-.673 1.5-1.5 1.5z" style="stroke:none"/>
        <path d="M2 1c-.551 0-1 .449-1 1v14c0 .551.449 1 1 1h14c.551 0 1-.449 1-1V2c0-.551-.449-1-1-1H2m0-1h14a2 2 0 0 1 2 2v14a2 2 0 0 1-2 2H2a2 2 0 0 1-2-2V2a2 2 0 0 1 2-2z" style="fill:#b8b8b8;stroke:none"/>
    </g>
</svg>
