<svg id="Icon_calander" xmlns="http://www.w3.org/2000/svg" width="44" height="44" viewBox="0 0 44 44">
  <defs>
    <style>
      .cls-1, .cls-2, .cls-3 {
        fill: none;
      }

      .cls-2, .cls-3 {
        stroke: #c9c9c9;
        stroke-width: 1.5px;
      }

      .cls-3 {
        stroke-linecap: round;
      }

      .cls-4 {
        fill: #c9c9c9;
      }

      .cls-5 {
        stroke: none;
      }
    </style>
  </defs>
  <g id="그룹_1032" data-name="그룹 1032" transform="translate(12 12)">
    <rect id="사각형_103" data-name="사각형 103" class="cls-1" width="20" height="20"/>
    <g id="그룹_110284" data-name="그룹 110284" transform="translate(2 3)">
      <g id="그룹_1031" data-name="그룹 1031">
        <g id="사각형_271" data-name="사각형 271" class="cls-2" transform="translate(0 0.899)">
          <rect class="cls-5" width="15.767" height="13.9" rx="2"/>
          <rect class="cls-1" x="0.75" y="0.75" width="14.267" height="12.4" rx="1.25"/>
        </g>
        <line id="선_35" data-name="선 35" class="cls-2" x2="14.108" transform="translate(0.83 4.985)"/>
        <g id="그룹_1030" data-name="그룹 1030" transform="translate(3.983 0)">
          <line id="선_36" data-name="선 36" class="cls-3" y2="2.434" transform="translate(0 0)"/>
          <line id="선_37" data-name="선 37" class="cls-3" y2="2.434" transform="translate(3.942 0)"/>
          <line id="선_38" data-name="선 38" class="cls-3" y2="2.434" transform="translate(7.884 0)"/>
        </g>
      </g>
      <circle id="타원_4651" data-name="타원 4651" class="cls-4" cx="0.75" cy="0.75" r="0.75" transform="translate(2.656 7.175)"/>
      <circle id="타원_4652" data-name="타원 4652" class="cls-4" cx="0.75" cy="0.75" r="0.75" transform="translate(5.486 7.163)"/>
      <circle id="타원_4653" data-name="타원 4653" class="cls-4" cx="0.75" cy="0.75" r="0.75" transform="translate(8.316 7.162)"/>
      <circle id="타원_4654" data-name="타원 4654" class="cls-4" cx="0.75" cy="0.75" r="0.75" transform="translate(11.145 7.162)"/>
      <circle id="타원_4655" data-name="타원 4655" class="cls-4" cx="0.75" cy="0.75" r="0.75" transform="translate(2.656 10.313)"/>
      <circle id="타원_4656" data-name="타원 4656" class="cls-4" cx="0.75" cy="0.75" r="0.75" transform="translate(5.486 10.303)"/>
      <circle id="타원_4657" data-name="타원 4657" class="cls-4" cx="0.75" cy="0.75" r="0.75" transform="translate(8.316 10.302)"/>
      <circle id="타원_4658" data-name="타원 4658" class="cls-4" cx="0.75" cy="0.75" r="0.75" transform="translate(11.145 10.302)"/>
    </g>
  </g>
  <rect id="Boundary" class="cls-1" width="44" height="44"/>
</svg>
