<svg xmlns="http://www.w3.org/2000/svg" width="32" height="32" viewBox="0 0 32 32">
    <path data-name="패스 462430" d="M5 0h22a5 5 0 0 1 5 5v22a5 5 0 0 1-5 5H5a5 5 0 0 1-5-5V5a5 5 0 0 1 5-5z" style="fill:#000000"/>
    <path d="m19151.184 10878.644-3.941-4.514a.947.947 0 0 1 0-1.264l3.941-4.514a1.064 1.064 0 0 1 1.412-.149.951.951 0 0 1 .164 1.413l-3.389 3.885 3.389 3.884a.951.951 0 0 1-.164 1.413 1.072 1.072 0 0 1-.625.2 1.027 1.027 0 0 1-.787-.354z" transform="translate(-19134 -10857.5)" style="fill:#fff"/>
</svg>
