<svg xmlns="http://www.w3.org/2000/svg" width="32" height="32" viewBox="0 0 32 32">
    <g data-name="사각형 87" style="fill:#e4f2fe;stroke:#0065bd">
        <rect width="32" height="32" rx="5" style="stroke:none"/>
        <rect x=".5" y=".5" width="31" height="31" rx="4.5" style="fill:none"/>
    </g>
    <path data-name="패스 462442" d="m19243.18 11742.649-3.937-4.517a.949.949 0 0 1 0-1.266l3.938-4.516a1.069 1.069 0 0 1 1.42-.149.976.976 0 0 1 .395.676.962.962 0 0 1-.236.739l-3.391 3.883 3.4 3.884a.979.979 0 0 1 .23.739.963.963 0 0 1-.4.676 1.061 1.061 0 0 1-1.414-.149zm-5 0-3.941-4.517a.958.958 0 0 1 0-1.266l3.941-4.516a1.069 1.069 0 0 1 1.42-.149.956.956 0 0 1 .16 1.415l-3.391 3.883 3.395 3.884a.981.981 0 0 1 .232.739.97.97 0 0 1-.4.676 1.063 1.063 0 0 1-1.416-.149z" transform="translate(-19223.5 -11721.5)" style="fill:#0065bd"/>
</svg>
