<svg xmlns="http://www.w3.org/2000/svg" width="44" height="44" viewBox="0 0 44 44">
    <g data-name="그룹 110282">
        <path data-name="사각형 60125" transform="translate(12 12)" style="fill:none" d="M0 0h20v20H0z"/>
        <path data-name="합치기 149" d="m19870.07 14481.03-4.676-3.767a1.019 1.019 0 0 1-.094-1.527 1.267 1.267 0 0 1 1.646-.085l3.816 3.084 7.51-7.395a1.236 1.236 0 0 1 .857-.339 1.219 1.219 0 0 1 .783.274 1.026 1.026 0 0 1 .385.753 1 1 0 0 1-.314.773l-8.283 8.157a1.248 1.248 0 0 1-1.631.07z" transform="translate(-19851 -14454.002)" style="fill:#c9c9c9"/>
    </g>
</svg>
