<svg xmlns="http://www.w3.org/2000/svg" width="22" height="22" viewBox="0 0 22 22">
    <path data-name="사각형 62851" style="fill:none" d="M0 0h22v22H0z"/>
    <path data-name="패스 464498" d="M8.474 19a3.368 3.368 0 0 1-3.368-3.368V6.369H3.422A.422.422 0 0 1 3 5.948a.421.421 0 0 1 .422-.421h4.21v-.842A1.684 1.684 0 0 1 9.316 3h3.369a1.684 1.684 0 0 1 1.684 1.685v.842h4.211a.421.421 0 0 1 .42.421.421.421 0 0 1-.42.421h-1.685v9.263A3.368 3.368 0 0 1 13.527 19zm-2.526-3.368a2.529 2.529 0 0 0 2.526 2.526h5.053a2.529 2.529 0 0 0 2.526-2.526V6.369h-10.1zm7.579-10.1V4.69a.844.844 0 0 0-.842-.843H9.316a.844.844 0 0 0-.842.843v.842zm-.842 9.684V8.48a.421.421 0 0 1 .421-.421.422.422 0 0 1 .422.421v6.736a.421.421 0 0 1-.422.421.421.421 0 0 1-.422-.427zm-4.211 0V8.48a.421.421 0 0 1 .421-.421.421.421 0 0 1 .421.421v6.736a.421.421 0 0 1-.421.421.421.421 0 0 1-.421-.427z"/>
</svg>
