<svg xmlns="http://www.w3.org/2000/svg" width="22" height="22" viewBox="0 0 22 22">
    <path data-name="사각형 61081" style="fill:none" d="M0 0h22v22H0z"/>
    <path data-name="패스 464493" d="M10.086 18.768a.422.422 0 0 1-.105-.419l.83-2.669a.447.447 0 0 1 .1-.174l.173-.172a.45.45 0 0 1 .068-.086.417.417 0 0 1 .086-.066l4.033-4.02a.427.427 0 0 1-.007-.08v-1.4H1.842v8.321h7.506a.419.419 0 0 1 .421.42.418.418 0 0 1-.421.415H1.421a.419.419 0 0 1-.423-.415V5.543a.421.421 0 0 1 .423-.419h3.587v-1.7a.421.421 0 0 1 .422-.419.423.423 0 0 1 .424.419v1.7h5.432v-1.7a.421.421 0 0 1 .421-.419.421.421 0 0 1 .419.419v1.7h3.56a.421.421 0 0 1 .422.419v4.79l2.146-2.139a1.033 1.033 0 0 1 .736-.3 1.028 1.028 0 0 1 .731.3l.972.969a1.033 1.033 0 0 1 0 1.466l-7.34 7.319a.418.418 0 0 1-.174.1l-2.668.827a.5.5 0 0 1-.128.016.435.435 0 0 1-.297-.123zm.937-.935 1.632-.5-1.126-1.122zm1.032-2.278 1.254 1.245 5.94-5.921-1.263-1.238zm6.8-6.776-.267.266 1.263 1.238.251-.25a.2.2 0 0 0 0-.285l-.971-.969a.179.179 0 0 0-.135-.053.193.193 0 0 0-.145.053zm-17.007.065H15.27V5.958h-3.139v.966a.421.421 0 0 1-.419.42.421.421 0 0 1-.421-.42v-.966H5.859v.966a.423.423 0 0 1-.424.42.422.422 0 0 1-.422-.42v-.966H1.847z"/>
</svg>
