<svg xmlns="http://www.w3.org/2000/svg" width="22" height="22" viewBox="0 0 22 22">
    <path data-name="사각형 62922" style="fill:none" d="M0 0h22v22H0z"/>
    <path data-name="패스 464513" d="M14.684 18H4.007a1.472 1.472 0 0 1-1.4-1.532V5.531A1.472 1.472 0 0 1 4.007 4h14a1.472 1.472 0 0 1 1.4 1.531v10.937a1.472 1.472 0 0 1-1.4 1.532zm3.322-.875a.631.631 0 0 0 .6-.657v-1.119l-3.363-3.212-2.182 2.444 1.818 2.543zm-14.6-.657a.631.631 0 0 0 .6.657h9.857l-6.28-8.782-4.178 5.616zm12.079-5.262 3.121 2.981V5.531a.631.631 0 0 0-.6-.656h-14a.631.631 0 0 0-.6.656v7.041L7.28 7.365a.386.386 0 0 1 .314-.162.388.388 0 0 1 .311.167l4.658 6.515 2.371-2.657a.383.383 0 0 1 .286-.132.381.381 0 0 1 .265.11zm-4.479-2.452a2.1 2.1 0 0 1 2-2.187 2.1 2.1 0 0 1 2 2.187 2.1 2.1 0 0 1-2 2.188 2.1 2.1 0 0 1-2-2.188zm.8 0a1.262 1.262 0 0 0 1.2 1.313 1.261 1.261 0 0 0 1.2-1.313 1.261 1.261 0 0 0-1.2-1.312 1.262 1.262 0 0 0-1.2 1.312z"/>
</svg>
