<svg xmlns="http://www.w3.org/2000/svg" width="32" height="32" viewBox="0 0 32 32">
    <path data-name="사각형 103" style="fill:none" d="M0 0h32v32H0z"/>
    <g data-name="그룹 11616">
        <g data-name="그룹 11612">
            <path data-name="패스 566" d="M209.817 58.8a1.558 1.558 0 0 1-.479-.083.811.811 0 0 1-.205-.1.305.305 0 0 1-.116-.153l-.755-2.527-.344 3.116H206.5l.628-4.9a.642.642 0 0 1 .093-.284.793.793 0 0 1 .191-.211.9.9 0 0 1 .243-.135 1.084 1.084 0 0 1 .258-.062 1.567 1.567 0 0 1 .288.014.969.969 0 0 1 .291.086.87.87 0 0 1 .251.18.679.679 0 0 1 .165.287l.905 3.172.905-3.172a.708.708 0 0 1 .161-.287.813.813 0 0 1 .251-.18 1.01 1.01 0 0 1 .3-.086 1.566 1.566 0 0 1 .288-.014 1.086 1.086 0 0 1 .258.062.9.9 0 0 1 .243.135.8.8 0 0 1 .191.211.629.629 0 0 1 .093.284l.629 4.9h-1.414l-.337-3.137-.763 2.548a.3.3 0 0 1-.116.153.794.794 0 0 1-.205.1 1.443 1.443 0 0 1-.247.062 1.483 1.483 0 0 1-.233.021z" transform="translate(-196.311 -33.053)" style="fill:#fff"/>
            <path data-name="패스 567" d="M222.127 56.99v2.043H220.6v-2.084l-1.7-2.473a.654.654 0 0 1-.127-.315.606.606 0 0 1 .038-.287.646.646 0 0 1 .157-.232.688.688 0 0 1 .232-.149.868.868 0 0 1 .666-.01 1.1 1.1 0 0 1 .5.426l1.048 1.606 1.009-1.606a1.593 1.593 0 0 1 .187-.232.824.824 0 0 1 .236-.169.842.842 0 0 1 .288-.077.929.929 0 0 1 .344.041.754.754 0 0 1 .251.135.606.606 0 0 1 .176.229.625.625 0 0 1 .048.3.673.673 0 0 1-.131.339z" transform="translate(-202.149 -33.033)" style="fill:#fff"/>
        </g>
        <g data-name="그룹 11614">
            <g data-name="그룹 11613">
                <path data-name="패스 568" d="M217.718 54.215a.769.769 0 0 1-.786-.75c0-5.2-4.348-8-8.439-8s-8.416 2.731-8.416 7.792a.787.787 0 0 1-1.572 0c0-5.816 5.079-9.292 9.989-9.292s10.011 3.555 10.011 9.5a.769.769 0 0 1-.787.75z" transform="translate(-192.504 -28.216)" style="fill:#fff"/>
            </g>
        </g>
        <g data-name="그룹 11615">
            <path data-name="패스 569" d="M213.054 37.517a5.382 5.382 0 1 1 5.382-5.382 5.388 5.388 0 0 1-5.382 5.382zm0-9.135a3.753 3.753 0 1 0 3.754 3.754 3.758 3.758 0 0 0-3.754-3.754z" transform="translate(-197.054 -20.753)" style="fill:#fff"/>
        </g>
    </g>
</svg>
