<svg xmlns="http://www.w3.org/2000/svg" width="18" height="18" viewBox="0 0 18 18">
    <path data-name="패스 462126" d="M2 0h14a2 2 0 0 1 2 2v14a2 2 0 0 1-2 2H2a2 2 0 0 1-2-2V2a2 2 0 0 1 2-2z" style="fill:#1976e5"/>
    <path data-name="패스 423927" d="M539.628 123.183a.866.866 0 0 1-.544-.188l-3.74-3.016a.688.688 0 0 1-.065-1.041.88.88 0 0 1 1.154-.058l3.138 2.531 6.081-5.989a.881.881 0 0 1 1.154-.046.688.688 0 0 1 .05 1.042l-6.626 6.526a.858.858 0 0 1-.602.239z" transform="translate(-532.072 -110.184)" style="fill:#fff"/>
</svg>
