<svg xmlns="http://www.w3.org/2000/svg" width="36" height="36" viewBox="0 0 36 36">
    <path data-name="패스 464506" d="M-2561.466 1935.284a2.251 2.251 0 0 1-2.054-2.4v-1.694a.653.653 0 0 1 .653-.652h1.832v-10.791a1.978 1.978 0 0 1 1.976-1.976h2.294c.767-1.047 2.571-1.747 4.783-1.747s4.016.7 4.782 1.747h2.293a1.979 1.979 0 0 1 1.977 1.976v10.791h1.831a.653.653 0 0 1 .654.652v1.694a2.251 2.251 0 0 1-2.054 2.4zm-.748-2.4c0 .595.342 1.1.748 1.1h18.967c.405 0 .748-.5.748-1.1v-1.041h-7.071a1.9 1.9 0 0 1-1.7 1.187h-2.929a1.9 1.9 0 0 1-1.695-1.187h-7.072zm2.484-13.137v10.791h5.057a.652.652 0 0 1 .639.518c.082.387.327.668.587.668h2.929c.258 0 .506-.281.587-.668a.653.653 0 0 1 .639-.518h5.056v-10.791a.671.671 0 0 0-.671-.671h-1.9v2.686c0 1.656-2.227 2.905-5.18 2.905s-5.181-1.249-5.181-2.905v-2.686h-1.9a.671.671 0 0 0-.662.668zm3.872 2.015c0 .652 1.509 1.6 3.875 1.6s3.875-.948 3.875-1.6v-.865c-.028.017-.059.032-.086.049-.064.037-.129.073-.2.109s-.114.059-.173.087l-.215.1c-.073.034-.123.052-.187.077s-.156.057-.237.085-.13.046-.2.067c-.084.026-.17.05-.258.073-.069.018-.138.038-.209.055-.09.022-.184.04-.279.058-.071.014-.141.03-.214.042-.1.018-.205.031-.309.045-.07.01-.139.021-.21.029-.118.014-.24.023-.361.032-.061 0-.12.012-.181.015a10.44 10.44 0 0 1-1.126 0c-.062 0-.122-.011-.183-.015a10.2 10.2 0 0 1-.359-.031c-.072-.008-.141-.02-.212-.03-.1-.014-.206-.027-.306-.045-.074-.013-.145-.028-.217-.042-.094-.019-.186-.037-.276-.058-.072-.017-.141-.037-.211-.056-.086-.023-.172-.046-.255-.072s-.134-.044-.2-.068-.156-.054-.233-.084-.127-.051-.19-.078-.143-.064-.212-.1-.118-.058-.175-.088-.131-.072-.194-.109c-.028-.017-.059-.031-.086-.049zm0-2.834c0 .652 1.509 1.6 3.875 1.6s3.875-.948 3.875-1.6-1.51-1.6-3.875-1.6-3.875.946-3.875 1.597z" transform="translate(2570.039 -1909.041)" style="fill:#1976e5"/>
    <path data-name="사각형 60079" style="fill:none" d="M0 0h36v36H0z"/>
</svg>
