<svg data-name="Icon_Leftmenu_Quality Management" xmlns="http://www.w3.org/2000/svg" width="36" height="36" viewBox="0 0 36 36">
    <path data-name="사각형 61112" style="fill:none" d="M0 0h36v36H0z"/>
    <path data-name="패스 464509" d="M-2734.423 1935.768h-4.585a2.868 2.868 0 0 1-2.708 1.933 2.867 2.867 0 0 1-2.741-2.041h-2.677a.665.665 0 0 1-.665-.665v-5.985a1.647 1.647 0 0 1 1.589-1.7h.846a.7.7 0 0 1 .077-.144l3.435-4.87a2.055 2.055 0 0 1 1.665-.922h7.486l-.187-.137a.977.977 0 0 1-.27-1.286l.639-1.1a1 1 0 0 1 .857-.49.979.979 0 0 1 .394.082l.453.2a4.384 4.384 0 0 1 1.025-.589l.054-.481a.986.986 0 0 1 .983-.875h1.28a.986.986 0 0 1 .983.874l.055.482a4.4 4.4 0 0 1 1.025.589l.453-.2a.974.974 0 0 1 .394-.082 1 1 0 0 1 .856.49l.64 1.1a.979.979 0 0 1-.271 1.287l-.393.287a4.413 4.413 0 0 1 .039.586 4.367 4.367 0 0 1-.039.584l.393.288a.979.979 0 0 1 .271 1.287l-.64 1.1a.992.992 0 0 1-.856.492 1 1 0 0 1-.394-.082l-.453-.2a4.423 4.423 0 0 1-1.025.587l-.055.482a.988.988 0 0 1-.438.713.664.664 0 0 1 .467.635v6.991a.665.665 0 0 1-.665.665h-1.846a2.867 2.867 0 0 1-2.741 2.041 2.868 2.868 0 0 1-2.71-1.926zm1.175-.93a1.534 1.534 0 0 0 1.533 1.533 1.534 1.534 0 0 0 1.532-1.533 1.534 1.534 0 0 0-1.532-1.532 1.534 1.534 0 0 0-1.533 1.532zm-10 0a1.534 1.534 0 0 0 1.532 1.533 1.534 1.534 0 0 0 1.533-1.533 1.534 1.534 0 0 0-1.533-1.532 1.534 1.534 0 0 0-1.532 1.532zm8.7-.4a2.867 2.867 0 0 1 2.835-2.461 2.869 2.869 0 0 1 2.817 2.354h1.105v-5.663l-18.419-.022c-.122 0-.257.149-.257.365v5.32h1.937a2.869 2.869 0 0 1 2.817-2.354 2.867 2.867 0 0 1 2.835 2.461zm-1.281-7.111 6.484.008a.986.986 0 0 1-.391-.679l-.054-.482a4.408 4.408 0 0 1-1.025-.587l-.453.2a1.007 1.007 0 0 1-.394.082 1 1 0 0 1-.857-.49l-.64-1.1a.979.979 0 0 1 .271-1.286l.394-.288v-.014a.692.692 0 0 1-.174.023h-3.161zm-4.917-4.285a.211.211 0 0 1-.013.018l-3 4.257 6.6.008v-4.617h-3.005a.728.728 0 0 0-.584.334zm10.3 1.684a3.478 3.478 0 0 0 1.213.7l.273.091.117 1.043a.086.086 0 0 0 .088.075h1.28a.087.087 0 0 0 .089-.076l.117-1.041.274-.091a3.489 3.489 0 0 0 1.213-.7l.214-.188.966.419a.087.087 0 0 0 .037.008.094.094 0 0 0 .078-.044l.64-1.1a.082.082 0 0 0-.024-.108l-.85-.621.058-.283a3.539 3.539 0 0 0 .069-.695 3.524 3.524 0 0 0-.069-.695l-.058-.283.85-.623a.08.08 0 0 0 .024-.106l-.64-1.1a.093.093 0 0 0-.078-.043.127.127 0 0 0-.037.007l-.966.419-.214-.188a3.527 3.527 0 0 0-1.213-.695l-.274-.09-.117-1.045a.089.089 0 0 0-.089-.075h-1.28a.088.088 0 0 0-.088.076l-.117 1.043-.273.09a3.516 3.516 0 0 0-1.213.695l-.214.188-.967-.419a.127.127 0 0 0-.036-.007.093.093 0 0 0-.079.043l-.639 1.1a.08.08 0 0 0 .023.107l.85.623-.057.283a3.453 3.453 0 0 0-.07.695 3.467 3.467 0 0 0 .07.695l.057.283-.85.621a.082.082 0 0 0-.024.108l.64 1.1a.094.094 0 0 0 .079.044.086.086 0 0 0 .036-.008l.967-.419zm.192-2.61a2.139 2.139 0 0 1 2.137-2.138 2.14 2.14 0 0 1 2.137 2.138 2.139 2.139 0 0 1-2.137 2.137 2.139 2.139 0 0 1-2.137-2.137zm.9 0a1.239 1.239 0 0 0 1.238 1.237 1.239 1.239 0 0 0 1.238-1.237 1.239 1.239 0 0 0-1.238-1.238 1.239 1.239 0 0 0-1.238 1.238z" transform="translate(2754.309 -1910.097)" style="fill:#1976e5"/>
</svg>
