<svg data-name="Icon_Leftmenu_Total B.I" xmlns="http://www.w3.org/2000/svg" width="36" height="36" viewBox="0 0 36 36">
    <path data-name="패스 464508" d="M8.231 27.002c-1.466 0-2.646-1.776-2.646-3.245v-.667a.647.647 0 0 1 .647-.648h1.884V11.071a2.03 2.03 0 0 1 2.028-2.027h15.719a2.029 2.029 0 0 1 2.028 2.027v11.371h1.883a.648.648 0 0 1 .648.648v.667c0 1.469-1.18 3.245-2.647 3.245zM6.88 23.757c0 .814.68 1.948 1.351 1.948h19.543c.67 0 1.351-1.134 1.351-1.948v-.019h-7.578a2.133 2.133 0 0 1-.375.474 2.115 2.115 0 0 1-1.46.592h-3.42a2.114 2.114 0 0 1-1.46-.592 2.084 2.084 0 0 1-.374-.474H6.879zm2.532-12.686v11.371h5.472a.648.648 0 0 1 .624.472.82.82 0 0 0 .786.595h3.42a.82.82 0 0 0 .786-.595.649.649 0 0 1 .624-.472h5.471V11.071a.731.731 0 0 0-.731-.731H10.143a.732.732 0 0 0-.732.731zm13.784 10.431h-4.2a.55.55 0 0 1-.49-.592v-3.308a.549.549 0 0 1 .49-.591h5.2a.549.549 0 0 1 .49.591v3.308a.541.541 0 0 1-.483.592zm-3.772-.986h4.333v-2.52h-4.333zm-3.429.986h-4.2a.55.55 0 0 1-.49-.592v-3.308a.549.549 0 0 1 .49-.591h5.2a.549.549 0 0 1 .491.591v3.308a.541.541 0 0 1-.483.592zm-3.771-.986h4.332v-2.52h-4.332zm10.972-4.228h-4.2a.55.55 0 0 1-.49-.591v-3.309a.549.549 0 0 1 .49-.591h5.2a.549.549 0 0 1 .49.591v3.309a.541.541 0 0 1-.483.591zm-3.772-.986h4.333v-2.52h-4.333zm-3.429.986h-4.2a.549.549 0 0 1-.49-.591v-3.309a.549.549 0 0 1 .49-.591h5.2a.549.549 0 0 1 .491.591v3.309a.541.541 0 0 1-.483.591zm-3.771-.986h4.332v-2.52h-4.332z"/>
    <path data-name="사각형 61007" style="fill:none" d="M0 0h36v36H0z"/>
</svg>
