<svg data-name="Icon_Leftmenu_gas alarmhistory" xmlns="http://www.w3.org/2000/svg" width="36" height="36" viewBox="0 0 36 36">
    <path data-name="사각형 61007" style="fill:none" d="M0 0h36v36H0z"/>
    <path data-name="패스 464479" d="M-4877.9-4167.8v-18.075h3.769v-1.015h9.648v1.382h-8.309v1.272h6.1v1.382h-7.442v-1.724h-2.438v15.479h13.284v-5.438h1.333v6.737zm5.449-3.519v-1.336h7.306v1.336zm-2.53 0v-1.336h1.584v1.336zm2.53-3v-1.336h7.306v1.336zm-2.53 0v-1.336h1.584v1.336zm10.679-2.8h-2.234a.369.369 0 0 1-.37-.369v-.687a1.111 1.111 0 0 1 1.009-1.132v-2.144a3.458 3.458 0 0 1 1.038-2.477 3.551 3.551 0 0 1 1.338-.832v-.085a1.164 1.164 0 0 1 1.163-1.163 1.165 1.165 0 0 1 1.163 1.163v.087a3.52 3.52 0 0 1 1.335.83 3.456 3.456 0 0 1 1.038 2.477v2.144a1.111 1.111 0 0 1 1.01 1.132v.687a.368.368 0 0 1-.369.369h-2.234a1.967 1.967 0 0 1-1.944 1.68 1.967 1.967 0 0 1-1.941-1.679zm1.944.942a1.228 1.228 0 0 0 1.193-.942h-2.387a1.227 1.227 0 0 0 1.193.944zm-3.81-2v.318h7.619v-.318a.37.37 0 0 0-.334-.4h-6.952a.368.368 0 0 0-.333.404zm1.009-3.276v2.142h5.6v-2.142a2.784 2.784 0 0 0-2.8-2.762 2.784 2.784 0 0 0-2.801 2.766zm3.217-3.476a.424.424 0 0 0-.416-.344.426.426 0 0 0-.417.344 3.56 3.56 0 0 1 .417-.024 3.568 3.568 0 0 1 .415.029zm-10.421 7.606v-1.337h4.451v1.337zm-2.617 0v-1.337h1.584v1.337z" transform="translate(4886.6 4195.656)" style="fill:#1976e5"/>
</svg>
