<svg data-name="Icon_Leftmenu_control history" xmlns="http://www.w3.org/2000/svg" width="36" height="36" viewBox="0 0 36 36">
    <path data-name="패스 464507" d="M-2592.727 1934.846a.986.986 0 0 1-.983-.874l-.054-.482a4.389 4.389 0 0 1-.816-.436l-.055.035a10.059 10.059 0 0 1-5.244 1.546 9.454 9.454 0 0 1-6.728-2.792 9.451 9.451 0 0 1-2.791-6.728 9.53 9.53 0 0 1 9.519-9.516 9.456 9.456 0 0 1 6.73 2.788 9.456 9.456 0 0 1 2.787 6.731c0 .09-.006.18-.012.267a4.4 4.4 0 0 1 .989.573l.453-.2a.993.993 0 0 1 .4-.082 1 1 0 0 1 .856.491l.64 1.1a.98.98 0 0 1-.271 1.287l-.394.287a4.393 4.393 0 0 1 .04.585 4.393 4.393 0 0 1-.04.585l.394.287a.98.98 0 0 1 .27 1.288l-.639 1.1a1 1 0 0 1-.856.491.978.978 0 0 1-.4-.082l-.453-.2a4.377 4.377 0 0 1-1.025.588l-.054.481a.987.987 0 0 1-.983.875zm-1.693-2.8a3.5 3.5 0 0 0 1.213.695l.274.091.117 1.043a.088.088 0 0 0 .089.076h1.28a.087.087 0 0 0 .088-.076l.118-1.043.273-.091a3.492 3.492 0 0 0 1.213-.695l.214-.188.967.419a.1.1 0 0 0 .037.007.091.091 0 0 0 .078-.044l.639-1.1a.081.081 0 0 0-.023-.108l-.851-.622.057-.283a3.46 3.46 0 0 0 .07-.695 3.466 3.466 0 0 0-.07-.695l-.057-.283.851-.622a.08.08 0 0 0 .023-.107l-.639-1.1a.091.091 0 0 0-.078-.044.1.1 0 0 0-.037.007l-.967.419-.214-.188a3.492 3.492 0 0 0-1.213-.695l-.273-.091-.112-1a1.1 1.1 0 0 1-.116-.123h-1.258a.088.088 0 0 0-.089.076l-.117 1.043-.274.091a3.5 3.5 0 0 0-1.213.695l-.214.188-.966-.419a.1.1 0 0 0-.037-.007.092.092 0 0 0-.078.044l-.64 1.1a.08.08 0 0 0 .024.107l.85.622-.057.283a3.519 3.519 0 0 0-.069.695 3.513 3.513 0 0 0 .069.695l.057.283-.85.622a.081.081 0 0 0-.024.107l.64 1.1a.093.093 0 0 0 .078.043l.052-.031.078-.047.016.022.852-.37zm-13.8-6.926a8.352 8.352 0 0 0 8.34 8.344 8.262 8.262 0 0 0 3.408-.74l-.019-.031-.629-1.081a2.185 2.185 0 0 1-.232.013 1.606 1.606 0 0 1-1.263-.567 3.653 3.653 0 0 1-.328-3.281c.161-.344-.1-.772-.293-1.014a1.858 1.858 0 0 1-.671.127 1.768 1.768 0 0 1-.407-.05 2.959 2.959 0 0 1-.568.847 2.135 2.135 0 0 1-2.083 2.085c-.07 0-.14.007-.207.007a4.315 4.315 0 0 1-3.161-1.591 3.98 3.98 0 0 1-.855-3.6 1.749 1.749 0 0 1 1.384-1.476 1.845 1.845 0 0 1 .344-.031 3.846 3.846 0 0 1 2.658 1.388.813.813 0 0 0 .711.275 2.385 2.385 0 0 0 .354-.029 1.843 1.843 0 0 1 .451-.939 2.981 2.981 0 0 1-.466-.94 2.139 2.139 0 0 1-.765-2.849 4.249 4.249 0 0 1 3.056-2.125 4.418 4.418 0 0 1 .771-.069 3.933 3.933 0 0 1 2.775 1.125 1.754 1.754 0 0 1 .587 1.941 3.635 3.635 0 0 1-2.677 1.919c-.39.034-.63.5-.745.793a1.856 1.856 0 0 1 .6.865 2.983 2.983 0 0 1 1.03.068 2.129 2.129 0 0 1 1.542-.2 2.108 2.108 0 0 1 1.3.967 1.961 1.961 0 0 1 .132.28q.184-.1.377-.174l.054-.481a.987.987 0 0 1 .983-.875h1.169a7.771 7.771 0 0 0-2.423-4.8 8.286 8.286 0 0 0-5.9-2.444 8.352 8.352 0 0 0-8.337 8.339zm10.141.286c0 .008-.006.015-.009.022a.342.342 0 0 0-.013.036 1.825 1.825 0 0 1-.354.715 1.985 1.985 0 0 1 .4 2.01 2.781 2.781 0 0 0 .184 2.236.582.582 0 0 0 .507.193 1.674 1.674 0 0 0 .244-.019.987.987 0 0 1 .266-.291l.393-.287a4.392 4.392 0 0 1-.039-.585 4.392 4.392 0 0 1 .039-.585l-.393-.287a.98.98 0 0 1-.271-1.288l.64-1.1a.994.994 0 0 1 .856-.491 1 1 0 0 1 .4.082l.176.076a.466.466 0 0 0-.027-.049 1.16 1.16 0 0 0-.72-.546 1.156 1.156 0 0 0-.869.13 1.262 1.262 0 0 0-.078.051.491.491 0 0 1-.438.068 2.019 2.019 0 0 0-.64-.1 2 2 0 0 0-.256.003zm-7.549-1.337c-.112.022-.45.085-.615.753a3.033 3.033 0 0 0 .655 2.739 3.4 3.4 0 0 0 2.445 1.242h.134a1.152 1.152 0 0 0 1.154-1.17c0-.031 0-.062-.006-.094a.492.492 0 0 1 .162-.414 2.012 2.012 0 0 0 .517-.717 2.11 2.11 0 0 1-.479-.715 3.228 3.228 0 0 1-.419.029 1.757 1.757 0 0 1-1.52-.691 2.985 2.985 0 0 0-1.858-.973 1.038 1.038 0 0 0-.173.008zm4.829.955a.892.892 0 0 0 .891.892.88.88 0 0 0 .515-.167 1.116 1.116 0 0 0 .345-.5.862.862 0 0 0 .031-.22.892.892 0 0 0-.891-.89.892.892 0 0 0-.892.882zm1.508-6.2a3.319 3.319 0 0 0-2.363 1.615 1.151 1.151 0 0 0 .437 1.584l.09.045a.486.486 0 0 1 .271.343 2 2 0 0 0 .362.805 2.1 2.1 0 0 1 .859-.057 1.983 1.983 0 0 1 1.546-1.347 2.774 2.774 0 0 0 1.843-1.275c.038-.108.152-.435-.345-.913a2.989 2.989 0 0 0-2.107-.852 3.375 3.375 0 0 0-.596.047zm5.066 10.612a2.14 2.14 0 0 1 2.137-2.137 2.14 2.14 0 0 1 2.137 2.137 2.139 2.139 0 0 1-2.137 2.138 2.139 2.139 0 0 1-2.14-2.143zm.9 0a1.239 1.239 0 0 0 1.238 1.238 1.239 1.239 0 0 0 1.238-1.238 1.239 1.239 0 0 0-1.238-1.237 1.239 1.239 0 0 0-1.241 1.232z" transform="translate(2616.481 -1907.517)" style="fill:#1976e5"/>
    <path data-name="사각형 61020" style="fill:none" d="M0 0h36v36H0z"/>
</svg>
