<svg data-name="Icon_Leftmenu_gas change history" xmlns="http://www.w3.org/2000/svg" width="36" height="36" viewBox="0 0 36 36">
    <path data-name="패스 464485" d="M-4913.5-4361.8v-18.076h3.77v-1.015h9.648v1.382h-8.309v1.274h6.1v1.382h-7.442v-1.725h-2.439v15.478h13.283v-5.438h1.334v6.738zm5.449-3.518v-1.338h7.308v1.338zm-2.53 0v-1.338h1.581v1.338zm2.53-3v-1.335h7.308v1.335zm-2.53 0v-1.335h1.581v1.335zm8.566-5.834a4.145 4.145 0 0 1 4.141-4.141 4.128 4.128 0 0 1 3.943 2.875.5.5 0 0 1-.324.629.5.5 0 0 1-.627-.324 3.131 3.131 0 0 0-2.992-2.18 3.144 3.144 0 0 0-3.141 3.141 3.145 3.145 0 0 0 3.141 3.141 3.139 3.139 0 0 0 2.291-.994l-.783-.774 2.439-.1-.145 2.369-.8-.79a4.147 4.147 0 0 1-3 1.291 4.146 4.146 0 0 1-4.143-4.144zm-5.95 2.834v-1.337h4.452v1.337zm-2.617 0v-1.337h1.582v1.337zm12.646-2.068a.5.5 0 0 1-.5-.5v-2.491a.5.5 0 0 1 .5-.5.5.5 0 0 1 .5.5v1.992h1.311a.5.5 0 0 1 .5.5.5.5 0 0 1-.5.5z" transform="translate(4921.799 4389.656)" style="fill:#1976e5"/>
    <path data-name="사각형 61033" style="fill:none" d="M0 0h36v36H0z"/>
</svg>
