<svg xmlns="http://www.w3.org/2000/svg" width="36" height="36" viewBox="0 0 36 36">
    <path data-name="패스 464486" d="M25.373 26.067a1.215 1.215 0 0 1-1.228-1.2v-9.066a1.214 1.214 0 0 1 1.228-1.2h1.47a1.214 1.214 0 0 1 1.229 1.2v9.066a1.215 1.215 0 0 1-1.229 1.2zm-.228-10.265v9.065a.216.216 0 0 0 .228.2h1.47a.216.216 0 0 0 .229-.2v-9.066a.216.216 0 0 0-.229-.2h-1.47a.216.216 0 0 0-.228.197zm-7.646 10.226a.924.924 0 0 1-.862-.973v-5.448a.926.926 0 0 1 .862-.974h4.821a.925.925 0 0 1 .862.974v5.448a.907.907 0 0 1-.85.973zm.138-1h4.544v-5.4h-4.544zm-7.775 1A.924.924 0 0 1 9 25.055v-5.448a.925.925 0 0 1 .862-.974h4.821a.925.925 0 0 1 .862.974v5.448a.906.906 0 0 1-.85.973zm.138-1h4.545v-5.4H10zM9.862 17.4A.924.924 0 0 1 9 16.427v-5.448a.924.924 0 0 1 .862-.973h4.821a.924.924 0 0 1 .862.973v5.448a.906.906 0 0 1-.85.973zm.138-1h4.545V11H10zm7.584.889a.91.91 0 0 1-.848-.958v-5.366a.91.91 0 0 1 .848-.959h4.749a.91.91 0 0 1 .849.959v5.366a.893.893 0 0 1-.836.958zm.152-1h4.445v-5.282h-4.445zm6.042-4.1a2.329 2.329 0 0 1 2.33-2.321 2.329 2.329 0 0 1 2.33 2.321 2.329 2.329 0 0 1-2.33 2.321 2.329 2.329 0 0 1-2.33-2.323zm1 0a1.327 1.327 0 0 0 1.33 1.321 1.327 1.327 0 0 0 1.329-1.321 1.326 1.326 0 0 0-1.329-1.321 1.326 1.326 0 0 0-1.329 1.319z"/>
</svg>
