<svg data-name="Icon_Leftmenu_Factory Management" xmlns="http://www.w3.org/2000/svg" width="36" height="36" viewBox="0 0 36 36">
    <path data-name="사각형 61117" style="fill:none" d="M0 0h36v36H0z"/>
    <path data-name="패스 464510" d="M26.997 29.582a.988.988 0 0 1-.984-.875l-.054-.482a4.393 4.393 0 0 1-1.025-.589l-.453.2a.992.992 0 0 1-.394.082.992.992 0 0 1-.856-.491l-.64-1.1a.984.984 0 0 1-.078-.168h-.853a1.181 1.181 0 0 1-.569-.146 1.173 1.173 0 0 1-.656.142h-5.252a1.172 1.172 0 0 1-.656-.142 1.169 1.169 0 0 1-.655.142H8.62a1.246 1.246 0 0 1-1.312-1.174V13.804a1.143 1.143 0 0 1 .575-.97l5.251-3.192a1.42 1.42 0 0 1 .738-.2 1.423 1.423 0 0 1 .614.137 1.162 1.162 0 0 1 .7 1.038v1.769l4.513-2.744a1.42 1.42 0 0 1 .738-.2 1.424 1.424 0 0 1 .614.137 1.162 1.162 0 0 1 .7 1.038v1.77l4.515-2.745a1.417 1.417 0 0 1 .738-.2 1.424 1.424 0 0 1 .614.137 1.162 1.162 0 0 1 .7 1.038v8.132a.989.989 0 0 1 .947.874l.054.481a4.4 4.4 0 0 1 1.025.589l.453-.2a.973.973 0 0 1 .394-.083.992.992 0 0 1 .856.491l.64 1.1a.979.979 0 0 1-.271 1.287l-.393.288a4.425 4.425 0 0 1 .04.585 4.42 4.42 0 0 1-.04.584l.393.288a.979.979 0 0 1 .271 1.287l-.64 1.1a.992.992 0 0 1-.856.491.988.988 0 0 1-.394-.082l-.453-.2a4.393 4.393 0 0 1-1.025.589l-.054.481a.988.988 0 0 1-.984.876zm-1.693-2.805a3.511 3.511 0 0 0 1.213.7l.274.091.117 1.043a.088.088 0 0 0 .089.076h1.279a.089.089 0 0 0 .089-.077l.117-1.042.274-.091a3.513 3.513 0 0 0 1.213-.7l.214-.187.967.419a.085.085 0 0 0 .036.008.09.09 0 0 0 .078-.044l.64-1.1a.081.081 0 0 0-.023-.108l-.85-.621.057-.283a3.486 3.486 0 0 0 .07-.695 3.472 3.472 0 0 0-.07-.695l-.057-.283.85-.622a.081.081 0 0 0 .024-.108l-.64-1.1a.09.09 0 0 0-.078-.044.085.085 0 0 0-.036.008l-.967.419-.214-.188a3.513 3.513 0 0 0-1.213-.7l-.274-.09-.117-1.044a.089.089 0 0 0-.089-.076h-1.279a.088.088 0 0 0-.089.077l-.117 1.043-.274.09a3.511 3.511 0 0 0-1.213.7l-.214.188-.967-.419a.085.085 0 0 0-.036-.008.093.093 0 0 0-.079.044l-.639 1.1a.081.081 0 0 0 .023.108l.85.622-.057.282a3.468 3.468 0 0 0-.07.7 3.468 3.468 0 0 0 .07.695l.057.283-.85.621a.081.081 0 0 0-.024.108l.64 1.1a.09.09 0 0 0 .078.044.085.085 0 0 0 .036-.008l.967-.419zm-3.556-12.97v11.177h1.189l.318-.233a4.42 4.42 0 0 1-.04-.584 4.425 4.425 0 0 1 .04-.585l-.393-.288a.979.979 0 0 1-.271-1.287l.639-1.1a1 1 0 0 1 .857-.491.976.976 0 0 1 .394.083l.453.2a4.4 4.4 0 0 1 1.025-.589l.054-.481a.988.988 0 0 1 .984-.876v-8.131zm-6.565 0v11.177h5.251V10.619zm-6.564 0v11.177h5.251V10.62zm16.878 10.359a2.139 2.139 0 0 1 2.137-2.137 2.14 2.14 0 0 1 2.137 2.137 2.14 2.14 0 0 1-2.137 2.138 2.139 2.139 0 0 1-2.137-2.139zm.9 0a1.239 1.239 0 0 0 1.238 1.238 1.239 1.239 0 0 0 1.238-1.238 1.239 1.239 0 0 0-1.238-1.237 1.239 1.239 0 0 0-1.238 1.236zm-3.4-6.666a1.5 1.5 0 0 1 1.5-1.5 1.5 1.5 0 0 1 1.5 1.5 1.5 1.5 0 0 1-1.5 1.5A1.5 1.5 0 0 1 23 17.499zm.9 0a.6.6 0 0 0 .6.6.6.6 0 0 0 .6-.6.6.6 0 0 0-.6-.6.6.6 0 0 0-.597.599zm-7.4 0a1.5 1.5 0 0 1 1.5-1.5 1.5 1.5 0 0 1 1.5 1.5 1.5 1.5 0 0 1-1.5 1.5 1.5 1.5 0 0 1-1.496-1.501zm.9 0a.6.6 0 0 0 .6.6.6.6 0 0 0 .6-.6.6.6 0 0 0-.6-.6.6.6 0 0 0-.596.599zm-7.6 0a1.5 1.5 0 0 1 1.5-1.5 1.5 1.5 0 0 1 1.5 1.5 1.5 1.5 0 0 1-1.5 1.5A1.5 1.5 0 0 1 9.8 17.499zm.9 0a.6.6 0 0 0 .6.6.6.6 0 0 0 .6-.6.6.6 0 0 0-.6-.6.6.6 0 0 0-.597.599z"/>
</svg>
