<svg xmlns="http://www.w3.org/2000/svg" width="44" height="44" viewBox="0 0 44 44">
    <path transform="translate(12 12)" style="fill:none" d="M0 0h20v20H0z"/>
    <g data-name="Icon/Filter" transform="translate(14.46 14.808)">
        <path data-name="선 1" d="M14.039.308H-.346A.654.654 0 0 1-1-.346.654.654 0 0 1-.346-1h14.385a.654.654 0 0 1 .654.654.654.654 0 0 1-.654.654z" transform="translate(1 2.474)" style="fill:#707070"/>
        <rect data-name="사각형 19" width="3.923" height="3.923" rx="1" transform="translate(9.964)" style="fill:#707070"/>
        <path data-name="선 2" d="M14.039.308H-.346A.654.654 0 0 1-1-.346.654.654 0 0 1-.346-1h14.385a.654.654 0 0 1 .654.654.654.654 0 0 1-.654.654z" transform="translate(1 7.264)" style="fill:#707070"/>
        <rect data-name="사각형 20" width="3.923" height="3.923" rx="1" transform="rotate(180 2.864 4.522)" style="fill:#707070"/>
        <path data-name="선 3" d="M14.039.308H-.346A.654.654 0 0 1-1-.346.654.654 0 0 1-.346-1h14.385a.654.654 0 0 1 .654.654.654.654 0 0 1-.654.654z" transform="translate(1 12.603)" style="fill:#707070"/>
        <rect data-name="사각형 21" width="3.923" height="3.923" rx="1" transform="rotate(180 5.447 7.192)" style="fill:#707070"/>
    </g>
    <path data-name="사각형 60124" style="fill:none" d="M0 0h44v44H0z"/>
</svg>
