<svg id="Icon_Search" xmlns="http://www.w3.org/2000/svg" width="44" height="44" viewBox="0 0 44 44">
  <defs>
    <style>
      .cls-1 {
        fill: none;
      }

      .cls-2 {
        fill: #c9c9c9;
      }
    </style>
  </defs>
  <rect id="Boundary" class="cls-1" width="44" height="44"/>
  <g id="Icon" transform="translate(12 12)">
    <path id="Color" class="cls-2" d="M6.537,11.515a5.007,5.007,0,0,0,3.024-1l.533-.4.412-.523A5.01,5.01,0,0,0,6.537,1.5,5.018,5.018,0,0,0,2.973,2.969a4.987,4.987,0,0,0,0,7.077,5.019,5.019,0,0,0,3.564,1.469M15.141,16a.86.86,0,0,1-.607-.249L10.46,11.714a6.561,6.561,0,0,1-8.545-.6,6.487,6.487,0,0,1,0-9.2,6.557,6.557,0,0,1,9.244,0,6.487,6.487,0,0,1,.525,8.614l4.064,4.028a.846.846,0,0,1,0,1.2A.86.86,0,0,1,15.141,16Z" transform="translate(2.5 2)"/>
    <rect id="Boundary-2" data-name="Boundary" class="cls-1" width="20" height="20"/>
  </g>
</svg>
