<svg xmlns="http://www.w3.org/2000/svg" width="36" height="36" viewBox="0 0 36 36">
    <defs>
        <clipPath id="51rhr63dba">
            <path data-name="사각형 60066" style="fill:none" d="M0 0h18.612v18.612H0z"/>
        </clipPath>
    </defs>
    <g data-name="그룹 110184">
        <g data-name="그룹 110166" style="clip-path:url(#51rhr63dba)" transform="translate(8.438 7.875)">
            <path data-name="패스 462071" d="M2.944 18.613a1.571 1.571 0 0 1-1.118-.464L.463 16.786a1.582 1.582 0 0 1 0-2.237l6.158-6.157A6.2 6.2 0 0 1 14.982.55a.566.566 0 0 1 .166.916L11.6 5.016a.449.449 0 0 0 0 .635l1.363 1.363a.45.45 0 0 0 .635 0l3.55-3.55a.566.566 0 0 1 .916.166 6.23 6.23 0 0 1-1.264 6.948 6.232 6.232 0 0 1-6.581 1.414l-6.156 6.157a1.57 1.57 0 0 1-1.118.464m9.484-17.481A5.062 5.062 0 0 0 7.8 8.29a.567.567 0 0 1-.115.635L1.264 15.35a.449.449 0 0 0 0 .635l1.364 1.363a.46.46 0 0 0 .635 0l6.425-6.425a.566.566 0 0 1 .635-.115A5.091 5.091 0 0 0 16 9.777 5.1 5.1 0 0 0 17.315 4.9L14.4 7.815a1.584 1.584 0 0 1-2.236 0L10.8 6.452a1.581 1.581 0 0 1 0-2.236L13.715 1.3a5.067 5.067 0 0 0-1.286-.166" style="fill:#fff"/>
            <path data-name="패스 462072" d="M7.722 37.8a.567.567 0 0 1-.4-.967l1.507-1.506a.566.566 0 0 1 .8.8L8.123 37.63a.566.566 0 0 1-.4.166" transform="translate(-4.455 -21.885)" style="fill:#fff"/>
        </g>
    </g>
    <path data-name="사각형 60076" style="fill:none" d="M0 0h36v36H0z"/>
</svg>
