<svg xmlns="http://www.w3.org/2000/svg" width="36" height="36" viewBox="0 0 36 36">
    <g data-name="그룹 110260">
        <path data-name="패스 462091" d="M6.8 0H2.267A2.27 2.27 0 0 0 0 2.267v15.251a2.27 2.27 0 0 0 2.267 2.267H6.8a2.27 2.27 0 0 0 2.267-2.267V2.267A2.27 2.27 0 0 0 6.8 0m1.03 17.518a1.032 1.032 0 0 1-1.03 1.03H2.267a1.032 1.032 0 0 1-1.03-1.03V2.267a1.032 1.032 0 0 1 1.03-1.03H6.8a1.032 1.032 0 0 1 1.03 1.03z" style="fill:#fff" transform="translate(8.438 7.875)"/>
        <path data-name="패스 462121" d="M6.8 0H2.267A2.27 2.27 0 0 0 0 2.267v15.251a2.27 2.27 0 0 0 2.267 2.267H6.8a2.27 2.27 0 0 0 2.267-2.267V2.267A2.27 2.27 0 0 0 6.8 0m1.03 17.518a1.032 1.032 0 0 1-1.03 1.03H2.267a1.032 1.032 0 0 1-1.03-1.03V2.267a1.032 1.032 0 0 1 1.03-1.03H6.8a1.032 1.032 0 0 1 1.03 1.03z" transform="translate(18.554 7.875)" style="fill:#fff"/>
        <path data-name="패스 462092" d="M8.482 6.723h-.241a1.76 1.76 0 0 0-1.756 1.722v.209a1.755 1.755 0 0 0 1.724 1.786h.243A1.757 1.757 0 0 0 10.2 8.719v-.21a1.757 1.757 0 0 0-1.718-1.786M8.967 8.7a.518.518 0 0 1-.159.365.5.5 0 0 1-.369.146h-.211a.518.518 0 0 1-.51-.529v-.209a.521.521 0 0 1 .519-.512h.219a.519.519 0 0 1 .511.528z" transform="translate(4.628 3.926)" style="fill:#fff"/>
        <path data-name="패스 462093" d="m9.784 20.949-1.893-.033H7.88a.618.618 0 0 0-.011 1.237l1.893.033h.012a.618.618 0 0 0 .01-1.237" transform="translate(4.17 -4.419)" style="fill:#fff"/>
        <path data-name="패스 462094" d="m9.67 27.553-1.894-.033h-.011a.618.618 0 0 0-.01 1.237l1.893.033h.012a.618.618 0 0 0 .01-1.237" transform="translate(4.237 -8.301)" style="fill:#fff"/>
        <path data-name="패스 462096" d="M32.873 6.723h-.241a1.76 1.76 0 0 0-1.757 1.727v.209a1.755 1.755 0 0 0 1.725 1.782h.243a1.757 1.757 0 0 0 1.755-1.726v-.21a1.757 1.757 0 0 0-1.725-1.787m.485 1.982a.518.518 0 0 1-.159.365.5.5 0 0 1-.369.146h-.211a.518.518 0 0 1-.51-.529v-.209a.521.521 0 0 1 .519-.512h.219a.519.519 0 0 1 .511.528z" transform="translate(-9.709 3.926)" style="fill:#fff"/>
        <path data-name="패스 462097" d="m34.175 20.949-1.893-.033h-.011a.618.618 0 0 0-.011 1.237l1.893.033h.012a.618.618 0 0 0 .01-1.237" transform="translate(-10.168 -4.419)" style="fill:#fff"/>
        <path data-name="패스 462098" d="m34.061 27.553-1.894-.033h-.011a.618.618 0 0 0-.01 1.237l1.893.033h.012a.618.618 0 0 0 .01-1.237" transform="translate(-10.1 -8.301)" style="fill:#fff"/>
    </g>
    <path data-name="사각형 60075" style="fill:none" d="M0 0h36v36H0z"/>
</svg>
