<svg xmlns="http://www.w3.org/2000/svg" width="36" height="36" viewBox="0 0 36 36">
    <path data-name="사각형 103" style="fill:none" d="M0 0h36v36H0z"/>
    <g data-name="그룹 110263">
        <path data-name="빼기 7" d="M.785 19.668A.766.766 0 0 1 0 18.923a8.691 8.691 0 0 1 2.193-5.864 10.23 10.23 0 0 1 5.131-3.044 5.352 5.352 0 1 1 5.213 0 10.77 10.77 0 0 1 1.773.625 8.038 8.038 0 0 0-1.176 1.118 9.257 9.257 0 0 0-3.213-.582c-4.053 0-8.359 2.714-8.359 7.742a.763.763 0 0 1-.777.75zM9.938 1.62a3.729 3.729 0 1 0 3.727 3.732A3.737 3.737 0 0 0 9.938 1.62z" style="stroke-miterlimit:10;fill:#fff;stroke:transparent" transform="translate(7.875 6.749)"/>
        <g data-name="그룹 1034">
            <g data-name="그룹 110262" transform="translate(19.021 18.563)">
                <circle data-name="타원 114" cx="1.688" cy="1.688" r="1.688" transform="translate(2.916 3.148)" style="stroke-linecap:round;stroke-linejoin:round;stroke:#1976e5;fill:none"/>
                <path data-name="패스 2440" d="m281.886 192.929-.6-.44a3.84 3.84 0 0 0 0-1.527l.6-.44a.517.517 0 0 0 .143-.679l-.623-1.07a.527.527 0 0 0-.665-.217l-.686.3a3.868 3.868 0 0 0-1.332-.763l-.083-.737a.524.524 0 0 0-.522-.463h-1.246a.524.524 0 0 0-.522.463l-.083.737a3.868 3.868 0 0 0-1.332.763l-.686-.3a.527.527 0 0 0-.665.217l-.623 1.07a.517.517 0 0 0 .143.679l.6.44a3.843 3.843 0 0 0 0 1.527l-.6.44a.517.517 0 0 0-.143.679l.623 1.07a.527.527 0 0 0 .665.217l.686-.3a3.867 3.867 0 0 0 1.332.763l.083.737a.523.523 0 0 0 .522.463h1.246a.523.523 0 0 0 .522-.463l.083-.737a3.867 3.867 0 0 0 1.332-.763l.686.3a.527.527 0 0 0 .665-.217l.623-1.07a.517.517 0 0 0-.143-.679z" transform="translate(-272.89 -186.891)" style="stroke:#1976e5;stroke-miterlimit:10;fill:none"/>
            </g>
        </g>
    </g>
</svg>
