<svg xmlns="http://www.w3.org/2000/svg" width="22" height="22" viewBox="0 0 22 22">
    <path data-name="사각형 62872" style="fill:none" d="M0 0h22v22H0z"/>
    <path data-name="패스 464496" d="M13.919 19.6h-6.46a2.374 2.374 0 0 1-2.341-2.4V7.6a2.372 2.372 0 0 1 2.341-2.4h7.024a2.373 2.373 0 0 1 2.343 2.4v3.754A4.392 4.392 0 0 1 20 15.6a4.352 4.352 0 0 1-4.292 4.4 4.174 4.174 0 0 1-1.789-.4zm-1.723-4a3.561 3.561 0 0 0 3.512 3.6 3.561 3.561 0 0 0 3.512-3.6 3.561 3.561 0 0 0-3.512-3.6 3.561 3.561 0 0 0-3.508 3.6zm-6.3-8v9.6a1.583 1.583 0 0 0 1.559 1.6h5.307a4.441 4.441 0 0 1-1.351-3.2 4.353 4.353 0 0 1 4.292-4.4q.171 0 .34.014V7.6A1.584 1.584 0 0 0 14.479 6H7.455A1.582 1.582 0 0 0 5.9 7.6zm9.417 9.937v-2.864l-1.077 1.26a.387.387 0 0 1-.294.136.383.383 0 0 1-.257-.1.407.407 0 0 1-.036-.564l1.7-1.994.025-.027a.382.382 0 0 1 .18-.1h.188a.387.387 0 0 1 .182.106l.023.025 1.7 1.993a.407.407 0 0 1-.036.564.383.383 0 0 1-.257.1.384.384 0 0 1-.293-.136l-.973-1.14v2.743a.4.4 0 0 1-.39.4.4.4 0 0 1-.381-.405zm-10.2-1.135h-.776A2.374 2.374 0 0 1 2 14V4.4A2.372 2.372 0 0 1 4.341 2h7.021a2.372 2.372 0 0 1 2.341 2.4v.8h-.777v-.8a1.583 1.583 0 0 0-1.564-1.6H4.341a1.584 1.584 0 0 0-1.564 1.6V14a1.584 1.584 0 0 0 1.564 1.6h.777v.8z"/>
</svg>
