<svg xmlns="http://www.w3.org/2000/svg" width="22" height="22" viewBox="0 0 22 22">
    <path data-name="사각형 60144" style="fill:none" d="M0 0h22v22H0z"/>
    <path data-name="패스 464500" d="M13.25 19h-7.5a.757.757 0 0 1-.75-.763V4.523a1.512 1.512 0 0 1 1.5-1.524h9A1.512 1.512 0 0 1 17 4.523v13.714a.756.756 0 0 1-.75.763zm-1.5-6.857a1.511 1.511 0 0 1 1.5 1.524v4.571h3V4.524a.757.757 0 0 0-.75-.762h-9a.757.757 0 0 0-.75.762v13.714h3v-4.571a1.512 1.512 0 0 1 1.5-1.524zM9.5 13.667v4.571h3v-4.571a.757.757 0 0 0-.75-.762h-1.5a.757.757 0 0 0-.75.762zm3.885-2.8a.514.514 0 0 1-.517-.511.514.514 0 0 1 .517-.511h1.242a.514.514 0 0 1 .517.511.514.514 0 0 1-.517.511zm-3.006 0a.514.514 0 0 1-.517-.511.514.514 0 0 1 .517-.511h1.242a.514.514 0 0 1 .517.511.514.514 0 0 1-.517.511zm-3.006 0a.514.514 0 0 1-.517-.511.514.514 0 0 1 .517-.511h1.241a.514.514 0 0 1 .518.511.514.514 0 0 1-.518.511zm6.012-2.285a.514.514 0 0 1-.517-.511.514.514 0 0 1 .517-.512h1.242a.514.514 0 0 1 .517.512.514.514 0 0 1-.517.511zm-3.006 0a.514.514 0 0 1-.517-.511.514.514 0 0 1 .517-.512h1.242a.514.514 0 0 1 .517.512.514.514 0 0 1-.517.511zm-3.006 0a.514.514 0 0 1-.517-.511.514.514 0 0 1 .517-.512h1.241a.515.515 0 0 1 .518.512.514.514 0 0 1-.518.511zm6.012-2.286a.514.514 0 0 1-.517-.511.514.514 0 0 1 .517-.511h1.242a.514.514 0 0 1 .517.511.514.514 0 0 1-.517.511zm-3.006 0a.514.514 0 0 1-.517-.511.514.514 0 0 1 .517-.511h1.242a.514.514 0 0 1 .517.511.514.514 0 0 1-.517.511zm-3.006 0a.514.514 0 0 1-.517-.511.514.514 0 0 1 .517-.511h1.241a.514.514 0 0 1 .518.511.514.514 0 0 1-.518.511z"/>
</svg>
