<svg xmlns="http://www.w3.org/2000/svg" width="22" height="22" viewBox="0 0 22 22">
    <path data-name="사각형 61082" style="fill:none" d="M0 0h22v22H0z"/>
    <path data-name="패스 464495" d="M11.07 17.6a.388.388 0 0 1-.27.109H4.394a.4.4 0 0 1-.394-.4V3.4a.4.4 0 0 1 .394-.4h6.2a.38.38 0 0 1 .064.005.392.392 0 0 1 .206.106l4.959 4.847a.4.4 0 0 1 .12.316v2.439a4.419 4.419 0 0 1 2.842 4.146 4.377 4.377 0 0 1-4.329 4.415A4.294 4.294 0 0 1 11.07 17.6zm-.152-2.743a3.582 3.582 0 0 0 3.542 3.612 3.582 3.582 0 0 0 3.542-3.612 3.582 3.582 0 0 0-3.542-3.612 3.582 3.582 0 0 0-3.542 3.616zm-6.13 2.049h5.839a4.457 4.457 0 0 1-.5-2.049 4.378 4.378 0 0 1 4.329-4.415 4.257 4.257 0 0 1 .7.058V8.646H10.59a.4.4 0 0 1-.393-.4V3.8H4.783zm6.2-9.062h3.586l-3.586-3.505zm3.157 8.394-1.3-.959a.408.408 0 0 1-.089-.561.389.389 0 0 1 .55-.09l1.01.744 1.558-1.833a.388.388 0 0 1 .555-.04.407.407 0 0 1 .04.566l-1.794 2.11a.39.39 0 0 1-.3.139.387.387 0 0 1-.231-.072z"/>
</svg>
