<svg xmlns="http://www.w3.org/2000/svg" width="22" height="22" viewBox="0 0 22 22">
    <path data-name="사각형 61082" style="fill:none" d="M0 0h22v22H0z"/>
    <path data-name="패스 464494" d="M11.069 17.6a.388.388 0 0 1-.27.109H4.393a.4.4 0 0 1-.394-.4V3.4a.4.4 0 0 1 .394-.4h6.2a.388.388 0 0 1 .277.112l4.959 4.847a.4.4 0 0 1 .121.3v2.454a4.419 4.419 0 0 1 2.841 4.146 4.377 4.377 0 0 1-4.329 4.415 4.294 4.294 0 0 1-3.393-1.674zm-.152-2.743a3.582 3.582 0 0 0 3.542 3.612 3.582 3.582 0 0 0 3.542-3.612 3.582 3.582 0 0 0-3.542-3.612 3.582 3.582 0 0 0-3.542 3.616zm-6.13 2.049h5.839a4.457 4.457 0 0 1-.5-2.049 4.378 4.378 0 0 1 4.329-4.415 4.244 4.244 0 0 1 .7.058V8.646h-4.566a.4.4 0 0 1-.393-.4V3.8H4.782zm6.2-9.062h3.586l-3.586-3.505zm3.14 9.018V15.39h-1.444a.4.4 0 0 1-.393-.4.4.4 0 0 1 .393-.4h1.444v-1.472a.4.4 0 0 1 .394-.4.4.4 0 0 1 .393.4v1.472h1.444a.4.4 0 0 1 .393.4.4.4 0 0 1-.393.4h-1.444v1.472a.4.4 0 0 1-.393.4.4.4 0 0 1-.394-.396z"/>
</svg>
