<svg xmlns="http://www.w3.org/2000/svg" width="22" height="22" viewBox="0 0 22 22">
    <path data-name="사각형 62845" style="fill:none" d="M0 0h22v22H0z"/>
    <path data-name="패스 464499" d="M-993.843 1994.438v-.784h.853v.784zm-1.422 0v-.784h.853v.784zm-1.423 0v-.784h.854v.784zm-1.422 0v-.784h.853v.784zm5.689 0v-.783h.078v-.078h.778v.861zm-7.114 0v-.861h.779v.078h.078v.783zm7.191-1.412v-.826h.779v.826zm-7.191-.04v-.886h.779v.886zm11.751-1.751v.336h-1.111v-.783h.666l-1.365-1.373a3.266 3.266 0 0 1-.954-2.318 3.267 3.267 0 0 1 .954-2.318 3.227 3.227 0 0 1 2.3-.96 3.227 3.227 0 0 1 2.3.96 3.267 3.267 0 0 1 .954 2.318 3.267 3.267 0 0 1-.954 2.318l-2.3 2.318zm-1.258-5.9a2.484 2.484 0 0 0-.727 1.764 2.483 2.483 0 0 0 .727 1.764l1.753 1.764 1.753-1.764a2.486 2.486 0 0 0 .727-1.764 2.488 2.488 0 0 0-.726-1.764 2.457 2.457 0 0 0-1.754-.731 2.454 2.454 0 0 0-1.753.729zm-3.3 6.315v-.861h.856v.783h-.078v.078zm1.6-.078v-.783h1.111v.783zm-8.788-.061v-.886h.779v.886zm0-1.477v-.886h.779v.886zm11.063-1.818a1.573 1.573 0 0 1-.46-1.116 1.573 1.573 0 0 1 .46-1.116 1.552 1.552 0 0 1 1.109-.463 1.554 1.554 0 0 1 1.109.462 1.574 1.574 0 0 1 .46 1.117 1.572 1.572 0 0 1-.46 1.116 1.554 1.554 0 0 1-1.109.463 1.552 1.552 0 0 1-1.113-.465zm.551-1.678a.79.79 0 0 0-.232.562.79.79 0 0 0 .232.562.8.8 0 0 0 1.117 0 .79.79 0 0 0 .232-.562.793.793 0 0 0-.232-.563.785.785 0 0 0-.558-.225.785.785 0 0 0-.564.224zm-11.614 2.019v-.861h.857v.783h-.078v.078zm2.791-.078v-.784l-2.8-2.817a4.579 4.579 0 0 1-1.337-3.248 4.578 4.578 0 0 1 1.337-3.247 4.524 4.524 0 0 1 3.228-1.345 4.516 4.516 0 0 1 3.227 1.345 4.578 4.578 0 0 1 1.337 3.247 4.578 4.578 0 0 1-1.337 3.248l-2.8 2.816v.784zm-2.028-9.319a3.485 3.485 0 0 0-1.018 2.471 3.486 3.486 0 0 0 1.018 2.472l2.456 2.471 2.456-2.471a3.483 3.483 0 0 0 1.018-2.472 3.484 3.484 0 0 0-1.017-2.471 3.441 3.441 0 0 0-2.457-1.024 3.44 3.44 0 0 0-2.46 1.022zm.646 9.318v-.784h.829v.784zm.7-5.458a1.576 1.576 0 0 1-.46-1.116 1.573 1.573 0 0 1 .46-1.116 1.552 1.552 0 0 1 1.109-.463 1.554 1.554 0 0 1 1.109.462 1.574 1.574 0 0 1 .46 1.117 1.571 1.571 0 0 1-.46 1.116 1.554 1.554 0 0 1-1.109.462 1.553 1.553 0 0 1-1.111-.464zm.551-1.679a.8.8 0 0 0-.232.563.793.793 0 0 0 .232.562.807.807 0 0 0 1.118 0 .792.792 0 0 0 .231-.562.794.794 0 0 0-.231-.563.785.785 0 0 0-.559-.233.783.783 0 0 0-.561.231z" transform="translate(1003.879 -1975.037)" style="stroke:transparent"/>
</svg>
