<svg xmlns="http://www.w3.org/2000/svg" width="22" height="22" viewBox="0 0 22 22">
    <path data-name="사각형 61078" style="fill:none" d="M0 0h22v22H0z"/>
    <path data-name="패스 464501" d="M-1011.451 2035.3a.365.365 0 0 1-.372-.358v-1.909h-2.328a1.818 1.818 0 0 1-1.85-1.781v-3.941a1.812 1.812 0 0 1 1.67-1.773v-.294a1.987 1.987 0 0 1 2.021-1.946h.487v-1.945a.365.365 0 0 1 .372-.357H-1005.079l.01.006.01.006.01.006h.006l.009.007.006.006.007.006.012.011 2.283 2.2h.668a1.986 1.986 0 0 1 2.021 1.946v.294a1.811 1.811 0 0 1 1.67 1.773v3.941a1.818 1.818 0 0 1-1.85 1.781h-2.327v1.909a.365.365 0 0 1-.372.358zm.372-2.625v1.91h7.8v-3.82h-7.8zm8.545-.358h2.327a1.088 1.088 0 0 0 1.107-1.065v-3.941a1.088 1.088 0 0 0-1.107-1.065h-13.943a1.088 1.088 0 0 0-1.107 1.065v3.941a1.088 1.088 0 0 0 1.107 1.065h2.328v-1.552h-1.323a.365.365 0 0 1-.372-.357.365.365 0 0 1 .372-.357h11.935a.364.364 0 0 1 .371.357.364.364 0 0 1-.371.357h-1.323zm0-6.787h1.764v-.286a1.256 1.256 0 0 0-1.278-1.231h-.487zm-8.545 0h7.8v-1.552h-1.984a.365.365 0 0 1-.372-.357v-1.91h-5.446zm-2.508-.286v.286h1.765v-1.517h-.487a1.256 1.256 0 0 0-1.278 1.236zm8.7-1.982h1.087l-1.087-1.046zm-4.785 10.42a.255.255 0 0 1-.26-.25.255.255 0 0 1 .26-.251h4.992a.256.256 0 0 1 .26.251.256.256 0 0 1-.26.25zm0-1.513a.255.255 0 0 1-.26-.251.255.255 0 0 1 .26-.25h4.992a.255.255 0 0 1 .26.25.256.256 0 0 1-.26.251zm7.778-4.4a.673.673 0 0 1 .685-.661.674.674 0 0 1 .686.661.673.673 0 0 1-.686.66.672.672 0 0 1-.691-.656z" transform="translate(1018 -2017.001)" style="stroke:transparent"/>
</svg>
