<svg xmlns="http://www.w3.org/2000/svg" width="22" height="22" viewBox="0 0 22 22">
    <path d="M0 0h22v22H0z" style="fill:none"/>
    <path data-name="패스 464327" d="M18831.168 12634.7a.358.358 0 0 1-.166-.487.362.362 0 0 1 .484-.172 4.144 4.144 0 1 0-1.9-1.9.366.366 0 1 1-.658.319 4.884 4.884 0 0 1 2.92-6.8v-4.855a.365.365 0 0 1 .191-.319l4.4-2.415a.391.391 0 0 1 .158-.085l2.754-1.514a.365.365 0 0 1 .355 0l7.309 4.014a.357.357 0 0 1 .191.319v8.03a.359.359 0 0 1-.191.32l-7.309 4.016a.356.356 0 0 1-.176.044.36.36 0 0 1-.18-.044l-1.58-.869a4.789 4.789 0 0 1-1.008 1.467 4.88 4.88 0 0 1-5.59.932zm5.59-7.831a4.879 4.879 0 0 1 1.258 4.734l1.143.628v-7.2l-6.578-3.611v4.068a4.874 4.874 0 0 1 4.178 1.376zm3.133-1.833v7.191l6.576-3.611v-7.191l-2.105 1.158v2.289a.362.362 0 0 1-.187.32l-1.568.861a.361.361 0 0 1-.178.047.343.343 0 0 1-.184-.051.366.366 0 0 1-.184-.315v-1.888zm2.906-1.6v1.674l.832-.46v-1.67zm-9.824-2.636 6.553 3.6 2.143-1.178-6.553-3.6zm2.906-1.591 6.549 3.595.818-.448-6.553-3.6zm1.58-.87 6.547 3.6 2.068-1.135-6.549-3.6zm-7.617 15.4a.371.371 0 0 1 .047-.52.367.367 0 0 1 .473.563.376.376 0 0 1-.238.089.359.359 0 0 1-.282-.122zm3.123-1.3a.367.367 0 0 1 0-.733h1.283a.952.952 0 0 0 0-1.9h-2.166l.252.254a.365.365 0 0 1-.258.624.375.375 0 0 1-.26-.105l-.879-.882a.363.363 0 0 1 0-.518l.879-.882a.37.37 0 0 1 .518 0 .364.364 0 0 1 0 .519l-.252.258h2.166a1.685 1.685 0 1 1 0 3.369z" transform="translate(-18826.432 -12614.43)" style="stroke:transparent"/>
</svg>
