<svg xmlns="http://www.w3.org/2000/svg" width="22" height="22" viewBox="0 0 22 22">
    <path data-name="사각형 62908" style="fill:none" d="M0 0h22v22H0z"/>
    <path data-name="패스 464497" d="M-1317.06 2032.208h-4.146a2.4 2.4 0 0 1-2.415 2 2.389 2.389 0 0 1-2.424-2.086h-1.422a1.489 1.489 0 0 1-1.534-1.438v-1.82a3.414 3.414 0 0 1 .865-2.089l2.852-2.935a3.419 3.419 0 0 1 2.174-.9h.842a1.616 1.616 0 0 1 .707.161v-2.453a1.485 1.485 0 0 1 1.523-1.439h9.51a1.49 1.49 0 0 1 1.529 1.439v10.124a1.487 1.487 0 0 1-1.529 1.438h-1.708a2.4 2.4 0 0 1-2.414 2 2.389 2.389 0 0 1-2.41-2.002zm.815-.367c-.005.033-.005.058-.008.077a1.567 1.567 0 0 0 1.6 1.511 1.567 1.567 0 0 0 1.606-1.511c0-.018 0-.044-.008-.08a1.563 1.563 0 0 0-1.6-1.45 1.561 1.561 0 0 0-1.59 1.453zm-8.963-.069c0 .025-.008.051-.011.076a.333.333 0 0 0-.008.062 1.568 1.568 0 0 0 1.606 1.522 1.569 1.569 0 0 0 1.608-1.522.369.369 0 0 0-.008-.054c0-.028-.008-.058-.011-.087a1.564 1.564 0 0 0-1.589-1.381 1.562 1.562 0 0 0-1.587 1.384zm3.96-.334a.569.569 0 0 1 .058 0h-.059zm8.973 0h1.746a.686.686 0 0 0 .7-.665v-10.124a.685.685 0 0 0-.7-.665h-9.51a.681.681 0 0 0-.7.665v10.789h3.709a2.4 2.4 0 0 1 2.375-1.82 2.393 2.393 0 0 1 2.38 1.817zm-15.9-2.573v1.82a.687.687 0 0 0 .705.664h1.5a2.393 2.393 0 0 1 2.35-1.732 2.448 2.448 0 0 1 2.059 1.076v-6.315a.687.687 0 0 0-.707-.664h-.842a2.572 2.572 0 0 0-1.561.646l-2.854 2.935a1.7 1.7 0 0 0-.212.272h2.6a.4.4 0 0 1 .413.389.4.4 0 0 1-.413.385h-2.812a.431.431 0 0 1-.125-.019 1.93 1.93 0 0 0-.098.541zm9.616-1.167a3.879 3.879 0 0 1 0-5.766 4.637 4.637 0 0 1 6.208 0 3.879 3.879 0 0 1 0 5.766 4.554 4.554 0 0 1-3.1 1.192 4.553 4.553 0 0 1-3.105-1.19zm.589-5.218a3.143 3.143 0 0 0 0 4.671 3.758 3.758 0 0 0 5.029 0 3.144 3.144 0 0 0 0-4.671 3.689 3.689 0 0 0-2.515-.966 3.688 3.688 0 0 0-2.511.963zm3.595 3.887-1.081-1-1.08 1a.44.44 0 0 1-.589 0 .368.368 0 0 1 0-.547l1.08-1-1.08-1a.367.367 0 0 1 0-.547.44.44 0 0 1 .589 0l1.08 1 1.081-1a.439.439 0 0 1 .589 0 .367.367 0 0 1 0 .547l-1.081 1 1.081 1a.368.368 0 0 1 0 .547.432.432 0 0 1-.295.113.432.432 0 0 1-.291-.116z" transform="translate(1330 -2015.207)" style="fill:#202020"/>
</svg>
