<svg xmlns="http://www.w3.org/2000/svg" width="22" height="22" viewBox="0 0 22 22">
    <path data-name="사각형 62907" style="fill:none" d="M0 0h22v22H0z"/>
    <path data-name="패스 463718" d="M18688.992 12524.665h-4.145a2.455 2.455 0 0 1-4.84-.087h-1.422a1.488 1.488 0 0 1-1.533-1.437v-1.82a3.423 3.423 0 0 1 .863-2.09l2.852-2.935a3.424 3.424 0 0 1 2.176-.9h1.674a1.614 1.614 0 0 1 .707.161v-2.452a1.486 1.486 0 0 1 1.523-1.439h8.676a1.491 1.491 0 0 1 1.529 1.439v10.123a1.487 1.487 0 0 1-1.529 1.438h-1.709a2.454 2.454 0 0 1-4.822 0zm.816-.366c-.006.033-.006.059-.008.077a1.606 1.606 0 0 0 3.207 0c0-.019 0-.044-.008-.081a1.6 1.6 0 0 0-3.191 0zm-8.963-.07c0 .026-.01.052-.012.077a.3.3 0 0 0-.008.063 1.609 1.609 0 0 0 3.213 0 .239.239 0 0 0-.008-.055c0-.029-.008-.059-.012-.088a1.6 1.6 0 0 0-3.174 0zm3.959-.333a.412.412 0 0 1 .059 0h.461v-7.059a.688.688 0 0 0-.707-.665h-1.674a2.567 2.567 0 0 0-1.561.647l-2.855 2.935a1.729 1.729 0 0 0-.211.272h2.6a.388.388 0 1 1 0 .774h-2.812a.43.43 0 0 1-.125-.019 1.928 1.928 0 0 0-.094.542v1.82a.687.687 0 0 0 .705.663h1.5a2.458 2.458 0 0 1 4.723.092zm8.973 0h1.746a.686.686 0 0 0 .7-.665v-10.131a.686.686 0 0 0-.7-.666h-8.676a.681.681 0 0 0-.7.666v10.788h2.877a2.46 2.46 0 0 1 4.75 0z" transform="translate(-18676.053 -12507.664)" style="fill:#202020"/>
</svg>
