<svg xmlns="http://www.w3.org/2000/svg" width="126" height="70" viewBox="0 0 126 70">
    <defs>
        <clipPath id="d8rxj70uda">
            <path data-name="사각형 2" style="fill:#000" d="M0 0h122.541v68.504H0z"/>
        </clipPath>
    </defs>
    <g data-name="그룹 1" transform="translate(2 1)" style="clip-path:url(#d8rxj70uda)">
        <path data-name="패스 1" d="m7.966 114-3-5.27H2.925V114H0v-13.925h5.1c3.064 0 5.5 1.016 5.5 4.216a4 4 0 0 1-2.787 4.01l3.419 5.7zm-5.04-7.473h1.9c1.878 0 2.905-.753 2.905-2.24 0-1.505-1.028-2.014-2.905-2.014h-1.9z" transform="translate(0 -45.763)" style="fill:#000"/>
        <path data-name="패스 2" d="M28.474 110.427H23.73L22.7 114h-2.963l4.685-13.929h3.439L32.565 114H29.5zm-.633-2.164-.435-1.525c-.455-1.449-.85-3.049-1.285-4.555h-.079a96.93 96.93 0 0 1-1.245 4.555l-.435 1.525z" transform="translate(-8.489 -45.763)" style="fill:#000"/>
        <path data-name="사각형 1" transform="translate(25.6 54.312)" style="fill:#000" d="M0 0h2.925v13.929H0z"/>
        <path data-name="패스 3" d="M56.018 100.075H59l4.25 7.417 1.463 3.011h.1a47.586 47.586 0 0 1-.376-4.875v-5.553h2.767V114h-2.963l-4.23-7.454-1.482-2.993h-.1c.138 1.505.356 3.256.356 4.856V114h-2.767z" transform="translate(-24.093 -45.763)" style="fill:#000"/>
        <path data-name="패스 4" d="m87.479 112.013 1.68-1.92a5.9 5.9 0 0 0 3.716 1.543c1.522 0 2.333-.621 2.333-1.6 0-1.035-.89-1.355-2.195-1.882l-1.956-.791a4.074 4.074 0 0 1-2.966-3.746c0-2.278 2.1-4.029 5.06-4.029a6.665 6.665 0 0 1 4.586 1.788l-1.483 1.751a4.8 4.8 0 0 0-3.1-1.148c-1.285 0-2.115.546-2.115 1.468 0 1 1.048 1.355 2.293 1.826l1.917.772c1.779.7 2.945 1.77 2.945 3.784 0 2.277-2 4.216-5.376 4.216a8.008 8.008 0 0 1-5.337-2.032" transform="translate(-37.624 -45.541)" style="fill:#000"/>
        <path data-name="패스 5" d="m110.84 108.9-4.388-8.828h3.1l1.462 3.389c.415 1.035.81 2.014 1.265 3.087h.079c.455-1.073.89-2.051 1.3-3.087l1.463-3.389h3.044l-4.408 8.828v5.1h-2.917z" transform="translate(-45.784 -45.763)" style="fill:#000"/>
        <path data-name="패스 6" d="m127.194 112.013 1.68-1.92a5.9 5.9 0 0 0 3.716 1.543c1.522 0 2.333-.621 2.333-1.6 0-1.035-.89-1.355-2.195-1.882l-1.957-.791a4.074 4.074 0 0 1-2.965-3.746c0-2.278 2.1-4.029 5.06-4.029a6.665 6.665 0 0 1 4.586 1.788l-1.483 1.751a4.8 4.8 0 0 0-3.1-1.148c-1.285 0-2.115.546-2.115 1.468 0 1 1.048 1.355 2.293 1.826l1.917.772c1.779.7 2.945 1.77 2.945 3.784 0 2.277-2 4.216-5.376 4.216a8.009 8.009 0 0 1-5.337-2.032" transform="translate(-54.705 -45.541)" style="fill:#000"/>
        <path data-name="패스 7" d="M151.39 102.39h-4.111v-2.316h11.188v2.316h-4.151V114h-2.926z" transform="translate(-63.343 -45.763)" style="fill:#000"/>
        <path data-name="패스 8" d="M170.726 100.075h8.974v2.316h-6.048v3.218h5.139v2.334h-5.139v3.727h6.266V114h-9.191z" transform="translate(-73.428 -45.763)" style="fill:#000"/>
        <path data-name="패스 9" d="M191.711 100.075h3.242l2.491 6.513c.316.866.593 1.788.89 2.692h.1c.316-.9.573-1.826.89-2.692l2.431-6.513h3.242V114h-2.668v-5.816c0-1.318.217-3.257.356-4.574h-.085l-1.186 3.275-2.253 5.854h-1.681l-2.273-5.854-1.166-3.275h-.079c.139 1.317.376 3.256.376 4.574V114h-2.629z" transform="translate(-82.453 -45.763)" style="fill:#000"/>
        <path data-name="패스 10" d="M100.31 28.035a12.188 12.188 0 0 0 5.164-2.919 11.135 11.135 0 0 0-.009-16.308 12.345 12.345 0 0 0-8.558-3.387h-.175a10.51 10.51 0 0 0-3.364-3.586A11.065 11.065 0 0 0 87.235 0H76.959v3.474h10.276a7.208 7.208 0 0 1 6.64 4.326l.455 1.1h2.577a8.282 8.282 0 0 1 8.467 8.063 8.281 8.281 0 0 1-8.467 8.063H95.4v.015h-3.55l3.553 3.4v.06h.063l.914.875 11.02 10.143h5.443z" transform="translate(-33.099)" style="fill:#000"/>
        <path data-name="패스 11" d="m63.889 46.13 4.53 4.335 11.018 10.148h5.443L69.075 46.13z" transform="translate(-27.478 -21.095)" style="fill:#000"/>
        <path data-name="패스 12" d="m55.792 18.866 17.667 16.413 11.018 10.15h5.717L61.253 18.866z" transform="translate(-23.996 -8.627)" style="fill:#000"/>
    </g>
    <path data-name="패스 462124" d="M0 0h126v70H0z" style="fill:none"/>
</svg>
