<svg xmlns="http://www.w3.org/2000/svg" width="194" height="32" viewBox="0 0 194 32">
    <defs>
        <clipPath id="b3mta09pda">
            <path data-name="사각형 60115" style="fill:#fff" d="M0 0h192.061v29.744H0z"/>
        </clipPath>
    </defs>
    <g data-name="그룹 110259" transform="translate(1.001 1)" style="clip-path:url(#b3mta09pda)">
        <path data-name="패스 462109" d="M90.758 13.417h6.027c3.621 0 6.494 1.284 6.494 5.256a4.948 4.948 0 0 1-3.294 4.976l4.041 7.079h-3.854l-3.552-6.541h-2.404v6.541h-3.458zm5.7 8.036c2.22 0 3.458-.934 3.458-2.78 0-1.869-1.238-2.5-3.458-2.5h-2.242v5.28z" transform="translate(-43.527 -6.435)" style="fill:#fff"/>
        <path data-name="패스 462110" d="M121.84 13.417h4.06l5.561 17.311h-3.621l-1.215-4.439h-5.607l-1.215 4.439h-3.5zm-.07 10.183h4.111l-.514-1.893c-.537-1.8-1-3.784-1.5-5.653h-.117a123.448 123.448 0 0 1-1.472 5.653z" transform="translate(-55.779 -6.435)" style="fill:#fff"/>
        <path data-name="사각형 60114" transform="translate(77.486 6.982)" style="fill:#fff" d="M0 0h3.458v17.311H0z"/>
        <path data-name="패스 462111" d="M163.263 13.416h3.527l5.023 9.228 1.728 3.738h.117c-.164-1.8-.444-4.088-.444-6.051v-6.915h3.27v17.311h-3.5l-5-9.252-1.752-3.714h-.117c.163 1.869.42 4.041.42 6.027v6.939h-3.271z" transform="translate(-78.3 -6.434)" style="fill:#fff"/>
        <path data-name="패스 462112" d="m203.983 28.252 1.985-2.383a6.8 6.8 0 0 0 4.392 1.916c1.8 0 2.757-.771 2.757-1.986 0-1.285-1.051-1.682-2.593-2.336l-2.313-.981c-1.752-.724-3.5-2.126-3.5-4.649 0-2.827 2.476-5 5.98-5a7.669 7.669 0 0 1 5.419 2.22l-1.752 2.173a5.516 5.516 0 0 0-3.668-1.425c-1.519 0-2.477.678-2.477 1.822 0 1.239 1.215 1.682 2.686 2.266l2.266.958c2.1.864 3.481 2.2 3.481 4.7 0 2.827-2.36 5.233-6.355 5.233a9.21 9.21 0 0 1-6.307-2.523" transform="translate(-97.83 -6.154)" style="fill:#fff"/>
        <path data-name="패스 462113" d="m233.727 24.4-5.186-10.98h3.668l1.729 4.229c.491 1.285.958 2.5 1.5 3.831h.094c.537-1.332 1.051-2.546 1.542-3.831l1.728-4.229h3.6l-5.217 10.98v6.331h-3.458z" transform="translate(-109.608 -6.434)" style="fill:#fff"/>
        <path data-name="패스 462114" d="m255.389 28.252 1.985-2.383a6.8 6.8 0 0 0 4.392 1.916c1.8 0 2.757-.771 2.757-1.986 0-1.285-1.051-1.682-2.593-2.336l-2.313-.981c-1.752-.724-3.5-2.126-3.5-4.649 0-2.827 2.476-5 5.98-5a7.669 7.669 0 0 1 5.419 2.22l-1.752 2.173a5.516 5.516 0 0 0-3.668-1.425c-1.519 0-2.477.678-2.477 1.822 0 1.239 1.215 1.682 2.686 2.266l2.266.958c2.1.864 3.481 2.2 3.481 4.7 0 2.827-2.359 5.233-6.355 5.233a9.21 9.21 0 0 1-6.307-2.523" transform="translate(-122.484 -6.154)" style="fill:#fff"/>
        <path data-name="패스 462115" d="M286.242 16.313h-4.86v-2.9h13.222v2.9H289.7v14.414h-3.458z" transform="translate(-134.95 -6.434)" style="fill:#fff"/>
        <path data-name="패스 462116" d="M311.732 13.416h10.606v2.9h-7.148v4h6.073v2.9h-6.073v4.614h7.41v2.9h-10.868z" transform="translate(-149.505 -6.434)" style="fill:#fff"/>
        <path data-name="패스 462117" d="M338.894 13.416h3.831l2.944 8.106c.374 1.075.7 2.22 1.051 3.318h.117c.373-1.1.677-2.242 1.051-3.318l2.874-8.106h3.831v17.311h-3.154v-7.218c0-1.636.258-4.042.444-5.678h-.117l-1.4 4.065-2.666 7.266h-1.986l-2.685-7.262-1.379-4.065h-.093c.163 1.636.444 4.042.444 5.678v7.219h-3.107z" transform="translate(-162.532 -6.434)" style="fill:#fff"/>
        <path data-name="패스 462118" d="M33.351 21.1a8.687 8.687 0 0 0-2.439-17.02h-.125a7.766 7.766 0 0 0-2.411-2.7A7.662 7.662 0 0 0 23.979 0h-7.365v2.616h7.365a5.161 5.161 0 0 1 4.759 3.253l.327.827h1.847a6.068 6.068 0 0 1 0 12.137h-1.079v.011h-2.546l2.546 2.556v.045h.045l.655.658 7.9 7.638h3.9z" transform="translate(-7.968)" style="fill:#fff"/>
        <path data-name="패스 462119" d="M6.355 36.208 9.6 39.47l7.9 7.638h3.9l-11.327-10.9z" transform="translate(-3.048 -17.365)" style="fill:#fff"/>
        <path data-name="패스 462120" d="m0 14.809 12.662 12.353 7.9 7.638h4.1L3.914 14.809z" transform="translate(0 -7.102)" style="fill:#fff"/>
    </g>
    <path data-name="사각형 60120" style="fill:none" d="M0 0h194v32H0z"/>
    <path data-name="사각형 60121" style="fill:none" d="M0 0h194v32H0z"/>
</svg>
