<svg xmlns="http://www.w3.org/2000/svg" width="34" height="34" viewBox="0 0 34 34">
    <g data-name="그룹 110282">
        <path data-name="사각형 60125" style="fill:none" d="M0 0h20v20H0z" transform="translate(7 7)"/>
        <path data-name="합치기 149" d="M5.07 10.028.394 6.262A1.019 1.019 0 0 1 .3 4.734a1.267 1.267 0 0 1 1.646-.085l3.817 3.084 7.51-7.394A1.236 1.236 0 0 1 14.13 0a1.219 1.219 0 0 1 .783.274 1.026 1.026 0 0 1 .385.753 1 1 0 0 1-.314.773L6.7 9.958a1.248 1.248 0 0 1-1.631.07z" transform="translate(9 12)" style="fill:#1976e5"/>
    </g>
</svg>
