<svg xmlns="http://www.w3.org/2000/svg" width="18" height="18" viewBox="0 0 18 18">
    <g data-name="패스 462126" style="fill:#1976e5">
        <path d="M16 17.5H2c-.827 0-1.5-.673-1.5-1.5V2C.5 1.173 1.173.5 2 .5h14c.827 0 1.5.673 1.5 1.5v14c0 .827-.673 1.5-1.5 1.5z" style="stroke:none"/>
        <path d="M2 1c-.551 0-1 .449-1 1v14c0 .551.449 1 1 1h14c.551 0 1-.449 1-1V2c0-.551-.449-1-1-1H2m0-1h14a2 2 0 0 1 2 2v14a2 2 0 0 1-2 2H2a2 2 0 0 1-2-2V2a2 2 0 0 1 2-2z" style="fill:#1976e5;stroke:none"/>
    </g>
    <path data-name="패스 423927" d="M539.628 123.183a.866.866 0 0 1-.544-.188l-3.74-3.016a.688.688 0 0 1-.065-1.041.88.88 0 0 1 1.154-.058l3.138 2.531 6.081-5.989a.881.881 0 0 1 1.154-.046.688.688 0 0 1 .05 1.042l-6.626 6.526a.858.858 0 0 1-.602.239z" transform="translate(-532.072 -110.184)" style="fill:#fff"/>
</svg>
