<svg data-name="Header bar_Elements_Icon_Back" xmlns="http://www.w3.org/2000/svg" width="36" height="36" viewBox="0 0 36 36">
    <path data-name="사각형 2" style="fill:none" d="M0 0h36v36H0z"/>
    <g style="isolation:isolate">
        <path d="M5.733.289a1.038 1.038 0 0 1 0 1.389L2.2 5.5l3.533 3.823a1.038 1.038 0 0 1 0 1.389.86.86 0 0 1-1.285 0L.267 6.19a1.038 1.038 0 0 1 0-1.389L4.449.28a.868.868 0 0 1 1.284.009z" transform="translate(18 13)" style="isolation:isolate"/>
        <path data-name="Vector" d="M5.733.289a1.038 1.038 0 0 1 0 1.389L2.2 5.5l3.533 3.823a1.038 1.038 0 0 1 0 1.389.86.86 0 0 1-1.285 0L.267 6.19a1.038 1.038 0 0 1 0-1.389L4.449.28a.868.868 0 0 1 1.284.009z" style="isolation:isolate" transform="translate(12 13)"/>
    </g>
</svg>
