<svg data-name="Header bar_Elements_Icon_Back" xmlns="http://www.w3.org/2000/svg" width="36" height="36" viewBox="0 0 36 36">
    <path data-name="사각형 2" style="fill:none" d="M0 0h36v36H0z"/>
    <g style="isolation:isolate">
        <path d="M.267.289a1.038 1.038 0 0 0 0 1.389L3.8 5.5.267 9.323a1.038 1.038 0 0 0 0 1.389.86.86 0 0 0 1.285 0L5.733 6.19a1.038 1.038 0 0 0 0-1.389L1.551.28A.868.868 0 0 0 .267.289z" transform="translate(12 13)" style="isolation:isolate"/>
        <path data-name="Vector" d="M.267.289a1.038 1.038 0 0 0 0 1.389L3.8 5.5.267 9.323a1.038 1.038 0 0 0 0 1.389.86.86 0 0 0 1.285 0L5.733 6.19a1.038 1.038 0 0 0 0-1.389L1.551.28A.868.868 0 0 0 .267.289z" transform="translate(18 13)" style="isolation:isolate"/>
    </g>
</svg>
