<svg xmlns="http://www.w3.org/2000/svg" width="36" height="36" viewBox="0 0 36 36">
    <defs>
        <clipPath id="wrhursky2a">
            <path data-name="사각형 60070" d="M0 0h23.074v19.264H0z"/>
        </clipPath>
    </defs>
    <g data-name="그룹 110190">
        <path data-name="패스 462082" d="M17.018 12.023z"/>
        <g data-name="그룹 110174">
            <g data-name="그룹 110173" style="clip-path:url(#wrhursky2a)" transform="translate(6.52 6.979)">
                <path data-name="패스 462083" d="M22.421 14.514h-1.832V3.723a1.978 1.978 0 0 0-1.976-1.976h-3.2a1.541 1.541 0 0 1 .65 1.157 1.121 1.121 0 0 1-.015.148h2.563a.671.671 0 0 1 .671.671v10.791h-5.055a.653.653 0 0 0-.639.518c-.081.387-.329.668-.587.668h-2.929c-.258 0-.5-.281-.587-.668a.652.652 0 0 0-.638-.519H3.79V3.723a.671.671 0 0 1 .671-.671h2.563a1.122 1.122 0 0 1-.015-.148 1.54 1.54 0 0 1 .649-1.157h-3.2a1.978 1.978 0 0 0-1.973 1.976v10.791H.653a.653.653 0 0 0-.653.653v1.694a2.251 2.251 0 0 0 2.053 2.4h18.968a2.251 2.251 0 0 0 2.053-2.4v-1.694a.653.653 0 0 0-.653-.653m-.653 2.347c0 .595-.342 1.1-.748 1.1H2.053c-.406 0-.748-.5-.748-1.1V15.82h7.073a1.9 1.9 0 0 0 1.694 1.187H13a1.9 1.9 0 0 0 1.7-1.187h7.072z"/>
                <path data-name="패스 462084" d="M11.537 0C8.584 0 6.356 1.249 6.356 2.9v2.839c0 1.657 2.227 2.906 5.181 2.906s5.18-1.245 5.18-2.906V2.9c0-1.656-2.227-2.9-5.181-2.9m0 1.305c2.365 0 3.875.947 3.875 1.6s-1.51 1.6-3.875 1.6-3.875-.947-3.875-1.6 1.509-1.6 3.875-1.6m3.875 4.433c0 .653-1.51 1.6-3.875 1.6s-3.875-.948-3.875-1.6v-.864c.027.017.059.032.087.048a4.458 4.458 0 0 0 .368.197c.059.028.141.065.213.1s.125.054.19.079.154.057.233.084.133.046.2.067.168.049.254.072c.07.019.14.038.212.055.09.022.183.04.276.059.072.014.143.03.217.043.1.017.2.031.306.045.071.01.14.021.212.029.117.013.238.022.359.031.061 0 .121.011.183.015a10.373 10.373 0 0 0 1.126 0c.061 0 .121-.01.181-.015.121-.009.242-.018.361-.031.071-.008.14-.019.21-.029.1-.014.208-.028.309-.045.073-.013.143-.028.214-.042.094-.019.188-.037.279-.059.071-.017.139-.036.208-.055.087-.023.174-.047.258-.073.068-.021.133-.044.2-.066s.159-.055.236-.085.126-.051.188-.077.145-.064.215-.1.117-.058.173-.088.131-.071.195-.109c.028-.017.059-.031.087-.048z"/>
            </g>
        </g>
    </g>
    <path data-name="사각형 60079" style="fill:none" d="M0 0h36v36H0z"/>
</svg>
