<svg xmlns="http://www.w3.org/2000/svg" width="36" height="36" viewBox="0 0 36 36">
    <defs>
        <clipPath id="8igtu9m47a">
            <path data-name="사각형 61024" style="stroke:#000;fill:none" d="M0 0h20.635v20.179H0z"/>
        </clipPath>
    </defs>
    <g data-name="그룹 111474">
        <path data-name="사각형 61022" style="fill:none" d="M0 0h36v36H0z"/>
        <g data-name="그룹 111473">
            <g data-name="그룹 111472" transform="translate(7.801 7.49)" style="clip-path:url(#8igtu9m47a)">
                <path data-name="패스 462479" d="M3.178.695v12.719s-1.792-.24-2.484 2.14V2.8a1.429 1.429 0 0 1 .189-.718A2.631 2.631 0 0 1 3.178.695z" transform="translate(.663 .716)" style="stroke-width:1.25px;stroke-linecap:round;stroke-linejoin:round;stroke:#000;fill:none"/>
                <path data-name="패스 462480" d="M3.33 4.5h14.764v14.93H3.686c-1.606 0-2.98-.839-2.991-2.713" transform="translate(.662 -.662)" style="stroke-width:1.25px;stroke-linecap:round;stroke-linejoin:round;stroke:#000;fill:none"/>
                <path data-name="선 700" transform="translate(12.017 9.051)" style="stroke-linecap:round;stroke-linejoin:round;stroke:#000;fill:none" d="M0 0v1.115"/>
                <path data-name="패스 462481" d="M9.829 17.382h-1.55V8.157h5.778v.926" transform="translate(-2.041 -1.622)" style="stroke-linecap:round;stroke-linejoin:round;stroke:#000;fill:none"/>
                <path data-name="패스 462482" d="M11.8 14.542h7.889v5.447h-6.768" transform="translate(-3.558 -4.23)" style="stroke-linecap:round;stroke-linejoin:round;stroke:#000;fill:none"/>
                <path data-name="선 701" transform="translate(9.362 12.491)" style="stroke-linecap:round;stroke-linejoin:round;stroke:#000;fill:none" d="M0 0h2.236"/>
                <path data-name="선 702" transform="translate(10.479 12.527)" style="stroke-linecap:round;stroke-linejoin:round;stroke:#000;fill:none" d="M0 0v3.16"/>
                <path data-name="패스 462483" d="M21.429 19.466v-1.241h2.235" transform="translate(-7.707 -5.734)" style="stroke-linecap:round;stroke-linejoin:round;stroke:#000;fill:none"/>
            </g>
        </g>
    </g>
    <path data-name="사각형 61025" style="fill:none" d="M0 0h36v36H0z"/>
</svg>
