<svg xmlns="http://www.w3.org/2000/svg" width="36" height="36" viewBox="0 0 36 36">
    <g data-name="그룹 110260">
        <path data-name="패스 462091" d="M15.238 7.875h-4.533a2.27 2.27 0 0 0-2.267 2.267v15.251a2.27 2.27 0 0 0 2.267 2.267h4.533a2.27 2.27 0 0 0 2.267-2.267V10.142a2.27 2.27 0 0 0-2.267-2.267m1.03 17.518a1.032 1.032 0 0 1-1.03 1.03h-4.533a1.032 1.032 0 0 1-1.03-1.03V10.142a1.032 1.032 0 0 1 1.03-1.03h4.533a1.032 1.032 0 0 1 1.03 1.03z"/>
        <path data-name="패스 462121" d="M25.354 7.875h-4.533a2.27 2.27 0 0 0-2.267 2.267v15.251a2.27 2.27 0 0 0 2.267 2.267h4.533a2.27 2.27 0 0 0 2.267-2.267V10.142a2.27 2.27 0 0 0-2.267-2.267m1.03 17.518a1.032 1.032 0 0 1-1.03 1.03h-4.533a1.032 1.032 0 0 1-1.03-1.03V10.142a1.032 1.032 0 0 1 1.03-1.03h4.533a1.032 1.032 0 0 1 1.03 1.03z"/>
        <path data-name="패스 462092" d="M13.11 10.649h-.241a1.76 1.76 0 0 0-1.756 1.722v.209a1.755 1.755 0 0 0 1.724 1.786h.243a1.757 1.757 0 0 0 1.748-1.721v-.21a1.757 1.757 0 0 0-1.718-1.786m.485 1.977a.518.518 0 0 1-.159.365.5.5 0 0 1-.369.146h-.211a.518.518 0 0 1-.51-.529v-.209a.521.521 0 0 1 .519-.512h.219a.519.519 0 0 1 .511.528z"/>
        <path data-name="패스 462093" d="m13.954 16.53-1.893-.033h-.011a.619.619 0 0 0-.011 1.237l1.893.033h.012a.619.619 0 0 0 .01-1.237"/>
        <path data-name="패스 462094" d="m13.907 19.252-1.894-.033h-.011a.619.619 0 0 0-.01 1.237l1.893.033h.012a.619.619 0 0 0 .01-1.237"/>
        <path data-name="패스 462096" d="M23.164 10.649h-.241a1.76 1.76 0 0 0-1.757 1.727v.209a1.755 1.755 0 0 0 1.725 1.782h.243a1.757 1.757 0 0 0 1.755-1.726v-.21a1.757 1.757 0 0 0-1.725-1.787m.485 1.982a.518.518 0 0 1-.159.365.5.5 0 0 1-.369.146h-.211a.518.518 0 0 1-.51-.529v-.209a.521.521 0 0 1 .519-.512h.219a.519.519 0 0 1 .511.528z"/>
        <path data-name="패스 462097" d="m24.007 16.53-1.893-.033h-.011a.619.619 0 0 0-.011 1.237l1.893.033h.012a.619.619 0 0 0 .01-1.237"/>
        <path data-name="패스 462098" d="m23.961 19.252-1.894-.033h-.011a.619.619 0 0 0-.01 1.237l1.893.033h.012a.619.619 0 0 0 .01-1.237"/>
    </g>
    <path data-name="사각형 60075" style="fill:none" d="M0 0h36v36H0z"/>
</svg>
