<svg data-name="Icon_Leftmenu_log Inquiry" xmlns="http://www.w3.org/2000/svg" width="36" height="36" viewBox="0 0 36 36">
    <path data-name="사각형 61049" style="fill:none" d="M0 0h36v36H0z"/>
    <path data-name="패스 464478" d="M8.701 28.037V10.104h3.783v-1.2h9.225v1.2h2.937v7.591l-.194.006h-1.097v-6.3h-1.648v1.565h-9.225v-1.565h-2.49V26.755h8.185v1.292zm5.08-16.464h6.632v-1.284h-6.632zm7.286 16.356a.614.614 0 0 1-.608-.593 4.029 4.029 0 0 1 1.018-2.728 4.673 4.673 0 0 1 1.5-1.09.219.219 0 0 1 .045-.026l.038-.015c.081-.036.162-.068.241-.1-.019-.017-.037-.034-.054-.053s-.058-.058-.083-.086l-.024-.024a2.565 2.565 0 0 1-.317-.42.572.572 0 0 1-.055-.073l-.006-.013a.294.294 0 0 1-.016-.034c-.047-.092-.08-.176-.107-.243l-.038-.1a1.182 1.182 0 0 1-.053-.14c-.019-.062-.028-.123-.04-.177l-.022-.113a1.817 1.817 0 0 1-.034-.206 1.2 1.2 0 0 1 0-.15v-.108a1.717 1.717 0 0 1 0-.239 1.052 1.052 0 0 1 .024-.141.414.414 0 0 0 .01-.052l.006-.033a2.08 2.08 0 0 1 .059-.269c.014-.043.028-.08.043-.114v-.006l.016-.038a2.562 2.562 0 0 1 .133-.308.245.245 0 0 1 .02-.044v-.009a.663.663 0 0 1 .053-.076.215.215 0 0 0 .015-.021 2.72 2.72 0 0 1 .2-.289c.033-.041.071-.077.1-.109l.031-.031a2.4 2.4 0 0 1 .225-.214 1.515 1.515 0 0 1 .146-.1l.038-.024c.015-.012.033-.023.047-.036a1.4 1.4 0 0 1 .135-.092.382.382 0 0 1 .059-.026c.053-.026.1-.045.148-.066l.083-.034a1.867 1.867 0 0 1 .25-.095.675.675 0 0 1 .1-.022h.04a2.774 2.774 0 0 1 .351-.063.582.582 0 0 1 .064 0h.248a1.632 1.632 0 0 1 .182.009 1.133 1.133 0 0 1 .113.019h.006l.037.009a2.438 2.438 0 0 1 .336.071c.04.012.075.027.106.039a.138.138 0 0 0 .024.01l.02.009a2.514 2.514 0 0 1 .314.135.321.321 0 0 1 .05.025.7.7 0 0 1 .081.053l.014.012.015.01a2.723 2.723 0 0 1 .275.193c.043.034.081.073.119.109l.06.061a2.32 2.32 0 0 1 .173.184 2.2 2.2 0 0 1 .141.2l.016.026a.234.234 0 0 0 .027.036 1.111 1.111 0 0 1 .074.112.207.207 0 0 1 .027.055 2.162 2.162 0 0 1 .1.22l.037.09a1.445 1.445 0 0 1 .06.16 1.753 1.753 0 0 1 .045.2l.024.134a1.038 1.038 0 0 1 .027.162 1.71 1.71 0 0 1 0 .233v.261a1.968 1.968 0 0 1-.042.24l-.023.119-.028.129c-.026.08-.058.156-.083.216l-.038.094c-.02.047-.041.1-.07.156a.543.543 0 0 1-.028.066.57.57 0 0 1-.064.087l-.007.009a2.476 2.476 0 0 1-.29.382l-.016.02c-.036.038-.076.082-.119.124l-.041.036c.086.034.172.071.264.112l.015.006a4.657 4.657 0 0 1 1.539 1.105l.006.007a4.018 4.018 0 0 1 1.018 2.722.609.609 0 0 1-.61.6h-.024a.612.612 0 0 1-.6-.6 2.953 2.953 0 0 0-2.079-2.852 3.683 3.683 0 0 0-.549-.146l-.087-.018a3.792 3.792 0 0 0-.606-.052h-.01a3.773 3.773 0 0 0-.666.058 3.7 3.7 0 0 0-.623.168 2.952 2.952 0 0 0-2.057 2.84.612.612 0 0 1-.609.6zm2.634-6.468a1.331 1.331 0 0 0 .813 1.228 1.338 1.338 0 0 0 .514.1 1.336 1.336 0 0 0 1.333-1.335 1.333 1.333 0 0 0-.587-1.1 1.33 1.33 0 0 0-.742-.227 1.334 1.334 0 0 0-1.331 1.333zm-9.412 2.846V22.97h4.451v1.337zm-2.618 0V22.97h1.585v1.337zm2.532-3v-1.336h7.307v1.336zm-2.532 0v-1.336h1.585v1.336zm2.532-3V16.97h7.307v1.337zm-2.532 0V16.97h1.585v1.337z"/>
</svg>
