<svg data-name="Icon_Leftmenu_Office Auto" xmlns="http://www.w3.org/2000/svg" width="36" height="36" viewBox="0 0 36 36">
    <path data-name="사각형 61115" style="fill:none" d="M0 0h36v36H0z"/>
    <path data-name="패스 464511" d="M-2826.083 1931.047a1.473 1.473 0 0 1-1.442-1.053h-12.725a.752.752 0 0 1-.532-.22.755.755 0 0 1-.219-.532l.04-11.832v-3.684a.75.75 0 0 1 .75-.75h7.626a.75.75 0 0 1 .615.319l2.356 3.366h7.751a.75.75 0 0 1 .75.75v4.622a.749.749 0 0 1-.07.317l1.835 1.977a.5.5 0 0 1 .129.406.5.5 0 0 1 0 .07v4.855a1.442 1.442 0 0 1-1.487 1.389zm-.486-1.389a.452.452 0 0 0 .486.389h5.381a.452.452 0 0 0 .486-.389v-4.49h-2.75a.5.5 0 0 1-.5-.5v-3.017h-2.617a.452.452 0 0 0-.486.389c.033 7.015.033 7.392 0 7.477zm-12.928-1.165h11.928v-6.454a1.442 1.442 0 0 1 1.486-1.389h3.083a.5.5 0 0 1 .214.048.5.5 0 0 1 .174.112v-2.649h-16.849zm17.031-4.325h1.6l-1.38-1.486a.758.758 0 0 1-.224-.2zm-17-7.585h7.961l-1.475-2.108h-6.486z" transform="translate(2848.767 -1903.186)" style="fill:#1976e5"/>
</svg>
