<svg xmlns="http://www.w3.org/2000/svg" width="36" height="36" viewBox="0 0 36 36">
    <defs>
        <clipPath id="wrz475glea">
            <path data-name="사각형 60065" d="M0 0h24.837v17.957H0z"/>
        </clipPath>
    </defs>
    <path data-name="사각형 60074" style="fill:none" d="M0 0h36v36H0z"/>
    <g data-name="그룹 110182">
        <g data-name="그룹 110164" style="clip-path:url(#wrz475glea)" transform="translate(5.584 9.044)">
            <path data-name="패스 462067" d="M24.189 13.4h-1.883V2.027A2.03 2.03 0 0 0 20.278 0H4.558a2.029 2.029 0 0 0-2.026 2.027V13.4H.648a.648.648 0 0 0-.648.647v.667c0 1.47 1.18 3.245 2.646 3.245H22.19c1.466 0 2.646-1.775 2.646-3.245v-.667a.648.648 0 0 0-.648-.648M3.828 2.027a.732.732 0 0 1 .73-.727h15.72a.732.732 0 0 1 .731.731V13.4h-5.471a.649.649 0 0 0-.624.472.82.82 0 0 1-.785.595h-3.42a.82.82 0 0 1-.785-.595.649.649 0 0 0-.624-.472H3.828zm19.713 12.686c0 .815-.68 1.949-1.35 1.949H2.646c-.67 0-1.35-1.134-1.35-1.949v-.019h7.578a2.147 2.147 0 0 0 1.834 1.067h3.42a2.147 2.147 0 0 0 1.834-1.067h7.578z"/>
            <path data-name="패스 462068" d="M8.536 11.66h-2.9a.648.648 0 0 1-.648-.648v-4.7a.648.648 0 0 1 .648-.652h2.9a.648.648 0 0 1 .648.648v4.7a.648.648 0 0 1-.648.648m-2.245-1.3h1.6V6.954h-1.6z"/>
            <path data-name="패스 462069" d="M13.865 11.656h-2.894a.648.648 0 0 1-.648-.648V2.914a.648.648 0 0 1 .648-.648h2.894a.648.648 0 0 1 .648.648v8.094a.648.648 0 0 1-.648.648m-2.246-1.3h1.6v-6.8h-1.6z"/>
            <path data-name="패스 462070" d="M19.197 11.656h-2.894a.648.648 0 0 1-.648-.648V4.759a.648.648 0 0 1 .648-.648h2.894a.648.648 0 0 1 .648.648v6.249a.648.648 0 0 1-.648.648m-2.246-1.3h1.6V5.407h-1.6z"/>
        </g>
    </g>
    <path data-name="사각형 60116" style="fill:none" d="M0 0h36v36H0z"/>
</svg>
