<svg data-name="Icon_Leftmenu_System Management" xmlns="http://www.w3.org/2000/svg" width="36" height="36" viewBox="0 0 36 36">
    <path data-name="사각형 61113" style="fill:none" d="M0 0h36v36H0z"/>
    <path data-name="패스 464512" d="M-2870.557 1937.18a.987.987 0 0 1-.983-.875l-.054-.482a4.352 4.352 0 0 1-1.025-.588l-.453.2a1 1 0 0 1-.4.082.994.994 0 0 1-.856-.49l-.64-1.1a.979.979 0 0 1 .271-1.287l.393-.287a4.389 4.389 0 0 1-.039-.585 4.389 4.389 0 0 1 .039-.585l-.393-.288a.979.979 0 0 1-.271-1.287l.64-1.1a.994.994 0 0 1 .763-.486 7.68 7.68 0 0 0-4.1-1.292 7.849 7.849 0 0 0-7.841 7.84.75.75 0 0 1-.75.75.75.75 0 0 1-.75-.75 9.357 9.357 0 0 1 6.834-9 4.791 4.791 0 0 1-2.283-4.08 4.8 4.8 0 0 1 4.789-4.791 4.8 4.8 0 0 1 4.79 4.791 4.793 4.793 0 0 1-2.342 4.116 8.463 8.463 0 0 1 3.332 1.843.752.752 0 0 1 .192.3l.1-.04.054-.482a.986.986 0 0 1 .983-.875h1.28a.987.987 0 0 1 .983.874l.054.482a4.361 4.361 0 0 1 1.025.588l.453-.2a.978.978 0 0 1 .4-.082.994.994 0 0 1 .856.49l.64 1.1a.981.981 0 0 1-.271 1.288l-.393.287a4.389 4.389 0 0 1 .039.585 4.389 4.389 0 0 1-.039.585l.393.287a.98.98 0 0 1 .27 1.288l-.639 1.1a.993.993 0 0 1-.856.491.992.992 0 0 1-.4-.082l-.453-.2a4.357 4.357 0 0 1-1.025.588l-.054.482a.987.987 0 0 1-.983.875zm-1.692-2.8a3.492 3.492 0 0 0 1.212.695l.273.091.117 1.043a.088.088 0 0 0 .089.076h1.28a.087.087 0 0 0 .088-.077l.118-1.042.273-.091a3.489 3.489 0 0 0 1.213-.695l.215-.188.966.419a.1.1 0 0 0 .037.007.091.091 0 0 0 .078-.044l.639-1.1a.08.08 0 0 0-.023-.107l-.851-.622.057-.283a3.468 3.468 0 0 0 .07-.695 3.462 3.462 0 0 0-.07-.695l-.057-.283.851-.622a.08.08 0 0 0 .023-.107l-.639-1.1a.09.09 0 0 0-.078-.043.1.1 0 0 0-.037.007l-.966.419-.215-.188a3.487 3.487 0 0 0-1.213-.695l-.273-.091-.118-1.043a.088.088 0 0 0-.088-.077h-1.28a.089.089 0 0 0-.089.077l-.117 1.043-.273.091a3.491 3.491 0 0 0-1.212.695l-.215.188-.966-.419a.1.1 0 0 0-.037-.007.089.089 0 0 0-.078.044l-.64 1.1a.082.082 0 0 0 .024.108l.851.622-.058.283a3.534 3.534 0 0 0-.069.695 3.54 3.54 0 0 0 .069.695l.058.283-.851.621a.082.082 0 0 0-.024.108l.64 1.1a.091.091 0 0 0 .078.044.1.1 0 0 0 .037-.007l.966-.419zm-8.7-12.886a3.293 3.293 0 0 0 3.289 3.289 3.293 3.293 0 0 0 3.289-3.289 3.292 3.292 0 0 0-3.289-3.29 3.292 3.292 0 0 0-3.289 3.285zm8.892 10.275a2.14 2.14 0 0 1 2.137-2.137 2.139 2.139 0 0 1 2.138 2.137 2.14 2.14 0 0 1-2.138 2.138 2.141 2.141 0 0 1-2.138-2.142zm.9 0a1.239 1.239 0 0 0 1.237 1.238 1.239 1.239 0 0 0 1.238-1.238 1.239 1.239 0 0 0-1.238-1.237 1.239 1.239 0 0 0-1.237 1.233z" transform="translate(2895.291 -1908.85)" style="fill:#1976e5"/>
</svg>
