<svg data-name="Header Bar_Elements_icon-close" xmlns="http://www.w3.org/2000/svg" width="44" height="44" viewBox="0 0 44 44">
    <path data-name="사각형 90" style="fill:none" d="M0 0h45v45H0z"/>
    <path data-name="합치기 135" d="M.221 15.109a.749.749 0 0 1 .007-1.061l6.456-6.383-6.46-6.381A.75.75 0 1 1 1.277.218l6.474 6.393L14.226.218a.749.749 0 1 1 1.054 1.066L8.817 7.665l6.459 6.379a.75.75 0 1 1-1.054 1.068L7.751 8.719l-6.474 6.393a.745.745 0 0 1-.526.216.753.753 0 0 1-.53-.219z" style="fill:#181818" transform="translate(14.75 14.836)"/>
</svg>
